<svg width="50" height="50" viewBox="0 0 50 50" fill="none" xmlns="http://www.w3.org/2000/svg">
<rect width="50" height="50" rx="10" fill="url(#paint0_linear_28_185)"/>
<path fill-rule="evenodd" clip-rule="evenodd" d="M15 25C15 24.7937 15.0753 24.5959 15.2092 24.4501C15.3431 24.3043 15.5248 24.2223 15.7142 24.2223H32.5603L28.0649 19.3292C27.9308 19.1832 27.8554 18.9852 27.8554 18.7787C27.8554 18.5721 27.9308 18.3741 28.0649 18.2281C28.199 18.082 28.3809 18 28.5706 18C28.7602 18 28.9421 18.082 29.0762 18.2281L34.7902 24.4494C34.8567 24.5216 34.9095 24.6075 34.9455 24.7019C34.9815 24.7964 35 24.8977 35 25C35 25.1023 34.9815 25.2036 34.9455 25.2981C34.9095 25.3925 34.8567 25.4784 34.7902 25.5506L29.0762 31.7719C29.0098 31.8442 28.931 31.9016 28.8442 31.9407C28.7575 31.9799 28.6645 32 28.5706 32C28.3809 32 28.199 31.918 28.0649 31.7719C27.9308 31.6259 27.8554 31.4279 27.8554 31.2213C27.8554 31.0148 27.9308 30.8168 28.0649 30.6708L32.5603 25.7777H15.7142C15.5248 25.7777 15.3431 25.6957 15.2092 25.5499C15.0753 25.4041 15 25.2063 15 25Z" fill="white" stroke="white"/>
<defs>
<linearGradient id="paint0_linear_28_185" x1="1.13947e-07" y1="24.5763" x2="50" y2="24.5763" gradientUnits="userSpaceOnUse">
<stop stop-color="#8A35F2"/>
<stop offset="1" stop-color="#BC4BDF"/>
</linearGradient>
</defs>
</svg>
