<svg width="50" height="50" viewBox="0 0 50 50" fill="none" xmlns="http://www.w3.org/2000/svg">
<rect width="50" height="50" rx="10" fill="url(#paint0_linear_37_563)"/>
<path fill-rule="evenodd" clip-rule="evenodd" d="M35 25C35 24.7937 34.9247 24.5959 34.7908 24.4501C34.6569 24.3043 34.4752 24.2223 34.2858 24.2223H17.4397L21.9351 19.3292C22.0692 19.1832 22.1446 18.9852 22.1446 18.7787C22.1446 18.5721 22.0692 18.3741 21.9351 18.2281C21.801 18.082 21.6191 18 21.4294 18C21.2398 18 21.0579 18.082 20.9238 18.2281L15.2098 24.4494C15.1433 24.5216 15.0905 24.6075 15.0545 24.7019C15.0185 24.7964 15 24.8977 15 25C15 25.1023 15.0185 25.2036 15.0545 25.2981C15.0905 25.3925 15.1433 25.4784 15.2098 25.5506L20.9238 31.7719C20.9902 31.8442 21.069 31.9016 21.1558 31.9407C21.2425 31.9799 21.3355 32 21.4294 32C21.6191 32 21.801 31.918 21.9351 31.7719C22.0692 31.6259 22.1446 31.4279 22.1446 31.2213C22.1446 31.0148 22.0692 30.8168 21.9351 30.6708L17.4397 25.7777H34.2858C34.4752 25.7777 34.6569 25.6957 34.7908 25.5499C34.9247 25.4041 35 25.2063 35 25Z" fill="white" stroke="white"/>
<defs>
<linearGradient id="paint0_linear_37_563" x1="1.13947e-07" y1="24.5763" x2="50" y2="24.5763" gradientUnits="userSpaceOnUse">
<stop stop-color="#8A35F2"/>
<stop offset="1" stop-color="#BC4BDF"/>
</linearGradient>
</defs>
</svg>
