<svg width="140" height="20" viewBox="0 0 140 20" fill="none" xmlns="http://www.w3.org/2000/svg">
<path d="M19.9326 7.49957C19.7705 6.97676 19.3403 6.59802 18.822 6.51869L13.5729 5.71923L11.2253 0.738809C10.762 -0.24627 9.22409 -0.24627 8.7608 0.738809L6.41316 5.71923L1.17657 6.51869C0.658452 6.5978 0.228272 6.97809 0.0673763 7.49957C-0.0947846 8.02239 0.0412282 8.59425 0.416581 8.97587L4.21292 12.843L3.31819 18.3162C3.23025 18.8563 3.44197 19.4036 3.86519 19.7262C4.28989 20.0475 4.8506 20.0893 5.31388 19.8343L9.99251 17.2489L14.6851 19.8343C14.8858 19.9452 15.1057 20 15.3242 20C15.6087 20 15.8931 19.9079 16.1352 19.7264C16.5587 19.4023 16.7702 18.8565 16.6822 18.3164L15.7875 12.8433L19.5838 8.97608C19.9588 8.59558 20.0948 8.02106 19.9326 7.49957Z" fill="#FFBC00"/>
<path d="M79.9326 7.49957C79.7705 6.97676 79.3403 6.59802 78.822 6.51869L73.5729 5.71923L71.2253 0.738809C70.762 -0.24627 69.2241 -0.24627 68.7608 0.738809L66.4132 5.71923L61.1766 6.51869C60.6585 6.5978 60.2283 6.97809 60.0674 7.49957C59.9052 8.02239 60.0412 8.59425 60.4166 8.97587L64.2129 12.843L63.3182 18.3162C63.2303 18.8563 63.442 19.4036 63.8652 19.7262C64.2899 20.0475 64.8506 20.0893 65.3139 19.8343L69.9925 17.2489L74.6851 19.8343C74.8858 19.9452 75.1057 20 75.3242 20C75.6087 20 75.8931 19.9079 76.1352 19.7264C76.5587 19.4023 76.7702 18.8565 76.6822 18.3164L75.7875 12.8433L79.5838 8.97608C79.9588 8.59558 80.0948 8.02106 79.9326 7.49957Z" fill="#FFBC00"/>
<path d="M49.9326 7.49957C49.7705 6.97676 49.3403 6.59802 48.822 6.51869L43.5729 5.71923L41.2253 0.738809C40.762 -0.24627 39.2241 -0.24627 38.7608 0.738809L36.4132 5.71923L31.1766 6.51869C30.6585 6.5978 30.2283 6.97809 30.0674 7.49957C29.9052 8.02239 30.0412 8.59425 30.4166 8.97587L34.2129 12.843L33.3182 18.3162C33.2303 18.8563 33.442 19.4036 33.8652 19.7262C34.2899 20.0475 34.8506 20.0893 35.3139 19.8343L39.9925 17.2489L44.6851 19.8343C44.8858 19.9452 45.1057 20 45.3242 20C45.6087 20 45.8931 19.9079 46.1352 19.7264C46.5587 19.4023 46.7702 18.8565 46.6822 18.3164L45.7875 12.8433L49.5838 8.97608C49.9588 8.59558 50.0948 8.02106 49.9326 7.49957Z" fill="#FFBC00"/>
<path d="M109.933 7.49957C109.77 6.97676 109.34 6.59802 108.822 6.51869L103.573 5.71923L101.225 0.738809C100.762 -0.24627 99.2241 -0.24627 98.7608 0.738809L96.4132 5.71923L91.1766 6.51869C90.6585 6.5978 90.2283 6.97809 90.0674 7.49957C89.9052 8.02239 90.0412 8.59425 90.4166 8.97587L94.2129 12.843L93.3182 18.3162C93.2303 18.8563 93.442 19.4036 93.8652 19.7262C94.2899 20.0475 94.8506 20.0893 95.3139 19.8343L99.9925 17.2489L104.685 19.8343C104.886 19.9452 105.106 20 105.324 20C105.609 20 105.893 19.9079 106.135 19.7264C106.559 19.4023 106.77 18.8565 106.682 18.3164L105.787 12.8433L109.584 8.97608C109.959 8.59558 110.095 8.02106 109.933 7.49957Z" fill="#FFBC00"/>
<path d="M139.933 7.49957C139.77 6.97676 139.34 6.59802 138.822 6.51869L133.573 5.71923L131.225 0.738809C130.762 -0.24627 129.224 -0.24627 128.761 0.738809L126.413 5.71923L121.177 6.51869C120.658 6.5978 120.228 6.97809 120.067 7.49957C119.905 8.02239 120.041 8.59425 120.417 8.97587L124.213 12.843L123.318 18.3162C123.23 18.8563 123.442 19.4036 123.865 19.7262C124.29 20.0475 124.851 20.0893 125.314 19.8343L129.993 17.2489L134.685 19.8343C134.886 19.9452 135.106 20 135.324 20C135.609 20 135.893 19.9079 136.135 19.7264C136.559 19.4023 136.77 18.8565 136.682 18.3164L135.787 12.8433L139.584 8.97608C139.959 8.59558 140.095 8.02106 139.933 7.49957Z" fill="#FFBC00"/>
</svg>
