<svg width="16" height="17" viewBox="0 0 16 17" fill="none" xmlns="http://www.w3.org/2000/svg">
<path d="M15.4662 0.582514C15.4495 0.522335 15.4175 0.467498 15.3734 0.423333C15.3292 0.379168 15.2744 0.347177 15.2142 0.330467C13.8948 -0.0357296 12.4656 0.0355185 11.0812 0.536391C10.0085 0.924527 8.96517 1.57517 8.2188 2.32158L7.09302 3.44735L3.01457 4.08442C2.93878 4.09627 2.8687 4.13188 2.81444 4.18612L0.205958 6.7946C0.156263 6.84432 0.122117 6.90743 0.107687 6.97623C0.0932561 7.04503 0.0991655 7.11655 0.124694 7.18204C0.150222 7.24754 0.194264 7.30419 0.251446 7.34508C0.308628 7.38597 0.376476 7.40933 0.44671 7.4123L3.01979 7.52052L2.3749 8.16541C2.23352 8.30678 2.23352 8.53602 2.3749 8.67743L2.7513 9.0538L1.62708 10.777C1.58169 10.8466 1.56161 10.9297 1.5702 11.0123C1.5788 11.0949 1.61555 11.1721 1.67429 11.2308L4.56589 14.1224C4.62463 14.1812 4.7018 14.2179 4.78443 14.2265C4.86707 14.2351 4.95015 14.215 5.01973 14.1696L6.7429 13.0454L7.11931 13.4218C7.26068 13.5631 7.48992 13.5631 7.63133 13.4218L8.27622 12.7769L8.38443 15.3499C8.38738 15.4201 8.41073 15.488 8.45161 15.5452C8.4925 15.6024 8.54915 15.6464 8.61465 15.672C8.68016 15.6975 8.75168 15.7034 8.82049 15.689C8.8893 15.6745 8.95241 15.6404 9.00213 15.5907L11.6106 12.9822C11.6649 12.9279 11.7005 12.8579 11.7123 12.7821L12.3495 8.70364L13.4752 7.57786C14.2216 6.83149 14.8722 5.78819 15.2604 4.71548C15.7612 3.33111 15.8324 1.90191 15.4662 0.582514ZM4.87014 13.4026L2.39405 10.9266L3.27455 9.57697L4.49113 10.7935L4.34805 10.9366C4.20664 11.078 4.20664 11.3072 4.34805 11.4486C4.48942 11.59 4.71866 11.59 4.86007 11.4486L5.00315 11.3056L6.21973 12.5221L4.87014 13.4026ZM12.9631 7.06591L11.7539 8.27517L11.7535 8.27561L10.4953 9.53382C10.3539 9.67519 10.3539 9.90443 10.4953 10.0458C10.6366 10.1872 10.8659 10.1872 11.0073 10.0458L11.4809 9.57223L11.0151 12.5537L9.0732 14.4957L8.97168 12.0814L9.98331 11.0698C10.1247 10.9284 10.1247 10.6992 9.98331 10.5578C9.84194 10.4165 9.6127 10.4165 9.47129 10.5578L8.34823 11.6809L8.34642 11.6827L7.3753 12.6537L7.05247 12.3309C7.04881 12.3271 7.04506 12.3234 7.04125 12.3197L5.5151 10.7935L9.89371 6.41498C10.0351 6.2736 10.0351 6.04436 9.89371 5.90295C9.75237 5.76165 9.52313 5.76161 9.38172 5.90295L5.00311 10.2816L3.47689 8.75537C3.47327 8.75161 3.46958 8.74792 3.46578 8.74426L3.14295 8.4214L4.11407 7.45028L4.11584 7.44851L5.23891 6.32544C5.38032 6.18407 5.38032 5.95483 5.23891 5.81342C5.09757 5.67208 4.86829 5.67208 4.72692 5.81342L3.71529 6.82505L1.30104 6.7235L3.24298 4.78155L6.22447 4.31584L5.75086 4.78941L6.26284 5.30143L7.51725 4.04703C7.51997 4.04438 7.52268 4.0417 7.52533 4.03895L8.73075 2.83353C9.73822 1.8261 12.1304 0.333399 14.8203 0.976406C15.4633 3.66631 13.9706 6.05852 12.9631 7.06591ZM3.51965 14.1002L2.13791 15.4819C1.99654 15.6233 1.99654 15.8525 2.13791 15.9939C2.20862 16.0646 2.30126 16.1 2.3939 16.1C2.48655 16.1 2.57923 16.0646 2.6499 15.9939L4.03163 14.6122C4.17301 14.4708 4.17301 14.2416 4.03163 14.1002C3.8903 13.9588 3.66106 13.9588 3.51965 14.1002Z" fill="white" stroke="white" stroke-width="0.2"/>
</svg>
