<svg width="17" height="17" viewBox="0 0 17 17" fill="none" xmlns="http://www.w3.org/2000/svg">
<path d="M8.09225 12.8537C7.96456 12.8229 7.36565 12.9427 6.7949 12.5853C6.7678 12.5684 6.73809 12.5578 6.70746 12.5541C6.67684 12.5505 6.6459 12.5539 6.6164 12.5642C6.58691 12.5744 6.55945 12.5914 6.53558 12.6139C6.51172 12.6365 6.49192 12.6644 6.47731 12.6959C6.4627 12.7274 6.45357 12.7619 6.45045 12.7975C6.44732 12.8331 6.45026 12.869 6.45909 12.9033C6.46793 12.9375 6.48248 12.9694 6.50193 12.9972C6.52138 13.0249 6.54533 13.0479 6.57243 13.0649C6.62106 13.0953 6.66981 13.123 6.71865 13.1482C6.2404 13.3922 5.85403 13.8328 5.62831 14.484C5.41415 13.8748 5.04712 13.4117 4.53749 13.1474C5.05724 12.8779 5.41884 12.4066 5.62831 11.8109C5.67318 11.9396 5.71412 12.029 5.71568 12.0327C5.74433 12.0963 5.7934 12.1441 5.85225 12.1659C5.91109 12.1877 5.97495 12.1816 6.02996 12.149C6.08496 12.1163 6.12667 12.0598 6.14601 11.9917C6.16536 11.9235 6.16078 11.8493 6.13328 11.785C6.13259 11.7814 5.84881 11.1796 5.88234 10.3786C5.90149 10.2285 5.81093 10.0792 5.67284 10.0497C5.54715 10.021 5.4079 10.1136 5.37553 10.2776C5.35878 10.3626 5.48003 11.8335 4.5614 12.5159C3.96337 12.9592 3.28443 12.8214 3.15793 12.8547C2.89053 12.9255 2.89074 13.3695 3.15793 13.4402C3.28287 13.4729 3.97512 13.3355 4.57334 13.7879C5.46171 14.4605 5.36368 15.8922 5.36962 15.9564C5.36962 16.2922 5.78265 16.3678 5.87381 16.0401C5.90465 15.9285 5.77493 14.5086 6.65209 13.8107C7.23 13.3505 7.94618 13.4615 8.07081 13.4452C8.356 13.408 8.3815 12.9248 8.09225 12.8537ZM15.9988 7.53994C15.5702 7.48463 12.5155 7.98321 11.1805 4.72632C10.4787 3.01319 10.6587 1.46016 10.6204 1.26532C10.586 1.09016 10.4435 0.985219 10.3072 1.00544C10.1518 1.02589 10.0487 1.17541 10.0487 1.32596V2.0327C9.94278 4.4623 8.99121 6.53054 6.99303 7.25853C5.83912 7.67911 4.83737 7.49745 4.65034 7.54498C4.3504 7.62407 4.34815 8.12461 4.65353 8.20344C4.91503 8.26756 6.88246 7.89719 8.41031 9.3715C8.45828 9.41615 8.51942 9.43713 8.58057 9.42991C8.64173 9.4227 8.69799 9.38787 8.73726 9.33293C8.77653 9.27799 8.79567 9.20733 8.79054 9.13616C8.78542 9.06499 8.75645 8.99901 8.70987 8.95241C8.18562 8.44653 7.55728 8.08503 6.83828 7.87501C8.73118 7.32102 9.89303 5.75103 10.3377 3.55186C10.7787 5.73756 11.931 7.32146 13.8442 7.87268C11.9501 8.4234 10.7722 9.99209 10.335 12.1852C10.1723 11.3814 9.90078 10.612 9.49265 9.94013C9.45645 9.88215 9.40206 9.84308 9.34125 9.83136C9.28043 9.81965 9.2181 9.83623 9.16773 9.87753C9.11737 9.91883 9.08303 9.98151 9.07214 10.052C9.06126 10.1225 9.07471 10.1952 9.10959 10.2542C9.25346 10.491 9.38293 10.7491 9.49456 11.0212C10.1567 12.6376 10.0397 14.2821 10.0493 14.4408C10.074 14.846 10.643 14.8664 10.6252 14.3653C10.5931 13.4622 10.6533 10.4028 12.7801 8.95107C14.2152 7.97243 15.8116 8.2583 16.0247 8.2026C16.3459 8.11789 16.3112 7.58068 15.9988 7.53994ZM5.3845 3.05974C5.22578 3.02151 3.97446 3.27891 3.41546 1.96854C3.15268 1.35381 3.17093 0.670298 3.17453 0.584606C3.19334 0.436278 3.10471 0.285481 2.96481 0.255815C2.8399 0.227094 2.69999 0.319177 2.66765 0.484208C2.65096 0.568811 2.77212 2.03964 1.85359 2.72205C1.27653 3.14979 0.603025 3.0393 0.476088 3.05575C0.190869 3.09344 0.167806 3.57161 0.450088 3.6463C0.5864 3.68196 1.26399 3.53911 1.86549 3.99408C2.50656 4.47933 2.63978 5.37053 2.66181 5.8633C2.66484 6.14493 2.65412 6.17768 2.67315 6.2463C2.70818 6.37227 2.80721 6.45683 2.91953 6.45683C3.04846 6.45691 3.15293 6.34612 3.17362 6.21036C3.18793 6.11726 3.12537 5.40906 3.42224 4.72363C3.44924 4.65923 3.45332 4.58507 3.4336 4.5172C3.41388 4.44934 3.37195 4.39323 3.31688 4.36102C3.26181 4.32882 3.19805 4.32311 3.13939 4.34514C3.08073 4.36717 3.03189 4.41516 3.00346 4.47871C2.97343 4.54824 2.94589 4.61918 2.9209 4.69135C2.70687 4.08173 2.33981 3.61819 1.82974 3.35364C2.34946 3.08403 2.71103 2.61283 2.92049 2.01709C3.12984 2.61719 3.48849 3.08636 4.01043 3.35458C3.95843 3.38124 3.90736 3.41028 3.85734 3.44165C3.83026 3.45867 3.80633 3.48172 3.78692 3.50948C3.76751 3.53724 3.753 3.56918 3.74421 3.60346C3.73542 3.63774 3.73253 3.6737 3.73571 3.70928C3.73888 3.74486 3.74806 3.77936 3.76271 3.81082C3.7923 3.87436 3.84239 3.92164 3.90197 3.94226C3.96155 3.96289 4.02575 3.95517 4.08043 3.92081C4.63368 3.57302 5.23812 3.66761 5.36303 3.65145C5.64975 3.61326 5.67149 3.13029 5.3845 3.05974Z" fill="url(#paint0_linear_26_208)" stroke="url(#paint1_linear_26_208)" stroke-width="0.5"/>
<defs>
<linearGradient id="paint0_linear_26_208" x1="0.249878" y1="8.11501" x2="16.2499" y2="8.11501" gradientUnits="userSpaceOnUse">
<stop stop-color="#8A35F2"/>
<stop offset="1" stop-color="#BC4BDF"/>
</linearGradient>
<linearGradient id="paint1_linear_26_208" x1="0.249878" y1="8.11501" x2="16.2499" y2="8.11501" gradientUnits="userSpaceOnUse">
<stop stop-color="#8A35F2"/>
<stop offset="1" stop-color="#BC4BDF"/>
</linearGradient>
</defs>
</svg>
