<svg width="20" height="35" viewBox="0 0 20 35" fill="none" xmlns="http://www.w3.org/2000/svg">
<path fill-rule="evenodd" clip-rule="evenodd" d="M9.75 0.25C10.2539 0.25 10.7372 0.449007 11.0935 0.803243C11.4498 1.15748 11.65 1.63792 11.65 2.13889V2.93726C15.7793 3.67267 19.25 6.75785 19.25 10.9537C19.25 11.4547 19.0498 11.9351 18.6935 12.2893C18.3372 12.6436 17.8539 12.8426 17.35 12.8426C16.8461 12.8426 16.3628 12.6436 16.0065 12.2893C15.6502 11.9351 15.45 11.4547 15.45 10.9537C15.45 9.24615 14.0212 7.43533 11.65 6.79059V15.5299C15.7793 16.2653 19.25 19.3504 19.25 23.5463C19.25 27.7421 15.7793 30.8273 11.65 31.5627V32.3611C11.65 32.8621 11.4498 33.3425 11.0935 33.6968C10.7372 34.051 10.2539 34.25 9.75 34.25C9.24609 34.25 8.76282 34.051 8.4065 33.6968C8.05018 33.3425 7.85 32.8621 7.85 32.3611V31.5627C3.72067 30.8273 0.25 27.7421 0.25 23.5463C0.25 23.0453 0.450179 22.5649 0.806498 22.2107C1.16282 21.8564 1.64609 21.6574 2.15 21.6574C2.65391 21.6574 3.13718 21.8564 3.4935 22.2107C3.84982 22.5649 4.05 23.0453 4.05 23.5463C4.05 25.2539 5.4788 27.0647 7.85 27.7069V18.9701C3.72067 18.2347 0.25 15.1496 0.25 10.9537C0.25 6.75785 3.72067 3.67267 7.85 2.93726V2.13889C7.85 1.63792 8.05018 1.15748 8.4065 0.803243C8.76282 0.449007 9.24609 0.25 9.75 0.25ZM7.85 6.79059C5.4788 7.43533 4.05 9.24615 4.05 10.9537C4.05 12.6613 5.4788 14.4721 7.85 15.1143V6.79059ZM11.65 19.3832V27.7094C14.0212 27.0647 15.45 25.2564 15.45 23.5463C15.45 21.8387 14.0212 20.0254 11.65 19.3832Z" fill="url(#paint0_linear_37_235)" stroke="url(#paint1_linear_37_235)" stroke-width="0.5"/>
<defs>
<linearGradient id="paint0_linear_37_235" x1="0.25" y1="16.9619" x2="19.25" y2="16.9619" gradientUnits="userSpaceOnUse">
<stop stop-color="#8A35F2"/>
<stop offset="1" stop-color="#BC4BDF"/>
</linearGradient>
<linearGradient id="paint1_linear_37_235" x1="0.25" y1="16.9619" x2="19.25" y2="16.9619" gradientUnits="userSpaceOnUse">
<stop stop-color="#8A35F2"/>
<stop offset="1" stop-color="#BC4BDF"/>
</linearGradient>
</defs>
</svg>
