<svg width="16" height="16" viewBox="0 0 16 16" fill="none" xmlns="http://www.w3.org/2000/svg">
<path d="M6.47784 10.4592C6.31738 10.4469 6.1681 10.3722 6.06201 10.2509L3.567 7.75087C3.51141 7.63424 3.49327 7.50321 3.51509 7.37582C3.5369 7.24844 3.59759 7.13096 3.6888 7.03957C3.78001 6.94817 3.89725 6.88736 4.02438 6.86551C4.15151 6.84365 4.28228 6.86183 4.39867 6.91753L6.45289 8.97589L13.547 1.91747C13.6634 1.86176 13.7942 1.84359 13.9213 1.86545C14.0485 1.8873 14.1657 1.94811 14.2569 2.03951C14.3481 2.1309 14.4088 2.24838 14.4306 2.37576C14.4524 2.50315 14.4343 2.63418 14.3787 2.75081L6.89368 10.2509C6.78758 10.3722 6.63831 10.4469 6.47784 10.4592Z" fill="url(#paint0_linear_37_360)" stroke="url(#paint1_linear_37_360)" stroke-width="0.5"/>
<path d="M7.72537 15.2509C6.3876 15.2487 5.07485 14.8873 3.92374 14.2044C2.77263 13.5214 1.82523 12.5418 1.18013 11.3675C0.689765 10.4925 0.386698 9.52466 0.290244 8.52578C0.138032 7.06083 0.41966 5.5834 1.09999 4.27779C1.78033 2.97217 2.82925 1.89618 4.11592 1.18403C4.98919 0.692674 5.95504 0.388998 6.95191 0.29235C7.94505 0.185305 8.94954 0.281703 9.90434 0.575687C9.98955 0.592746 10.0703 0.627458 10.1413 0.677596C10.2124 0.727734 10.2722 0.792193 10.3169 0.866841C10.3616 0.941489 10.3903 1.02468 10.4011 1.11108C10.4118 1.19747 10.4045 1.28518 10.3795 1.36856C10.3544 1.45194 10.3123 1.52916 10.2558 1.59528C10.1992 1.66139 10.1295 1.71494 10.0511 1.75249C9.97271 1.79004 9.88734 1.81075 9.80048 1.81332C9.71363 1.81588 9.62719 1.80023 9.54672 1.76737C8.73884 1.52397 7.89059 1.44464 7.05171 1.53403C6.22254 1.61911 5.41911 1.87139 4.68977 2.27571C3.98712 2.66413 3.36588 3.18477 2.8601 3.80906C2.33936 4.44503 1.9505 5.17873 1.7163 5.96718C1.48209 6.75563 1.40726 7.58299 1.49616 8.40078C1.58107 9.23163 1.83285 10.0367 2.23635 10.7675C2.62399 11.4715 3.14358 12.094 3.76662 12.6008C4.40132 13.1226 5.13354 13.5123 5.92041 13.7469C6.70728 13.9816 7.53297 14.0566 8.34912 13.9675C9.1783 13.8824 9.98172 13.6302 10.7111 13.2258C11.4137 12.8374 12.035 12.3168 12.5407 11.6925C13.0615 11.0565 13.4503 10.3228 13.6845 9.53436C13.9187 8.74591 13.9936 7.91856 13.9047 7.10077C13.8881 6.92727 13.941 6.75429 14.0518 6.61989C14.1625 6.48549 14.322 6.40067 14.4952 6.38409C14.6683 6.36751 14.8409 6.42054 14.9751 6.5315C15.1092 6.64246 15.1938 6.80227 15.2104 6.97576C15.3618 8.44159 15.079 9.91964 14.3971 11.2253C13.7152 12.531 12.6646 13.6065 11.3764 14.3175C10.4938 14.829 9.51308 15.1471 8.49882 15.2509H7.72537Z" fill="url(#paint2_linear_37_360)" stroke="url(#paint3_linear_37_360)" stroke-width="0.5"/>
<defs>
<linearGradient id="paint0_linear_37_360" x1="3.5061" y1="6.08493" x2="14.4396" y2="6.08493" gradientUnits="userSpaceOnUse">
<stop stop-color="#8A35F2"/>
<stop offset="1" stop-color="#BC4BDF"/>
</linearGradient>
<linearGradient id="paint1_linear_37_360" x1="3.5061" y1="6.08493" x2="14.4396" y2="6.08493" gradientUnits="userSpaceOnUse">
<stop stop-color="#8A35F2"/>
<stop offset="1" stop-color="#BC4BDF"/>
</linearGradient>
<linearGradient id="paint2_linear_37_360" x1="0.25" y1="7.6233" x2="15.2502" y2="7.6233" gradientUnits="userSpaceOnUse">
<stop stop-color="#8A35F2"/>
<stop offset="1" stop-color="#BC4BDF"/>
</linearGradient>
<linearGradient id="paint3_linear_37_360" x1="0.25" y1="7.6233" x2="15.2502" y2="7.6233" gradientUnits="userSpaceOnUse">
<stop stop-color="#8A35F2"/>
<stop offset="1" stop-color="#BC4BDF"/>
</linearGradient>
</defs>
</svg>
