<svg width="26" height="26" viewBox="0 0 26 26" fill="none" xmlns="http://www.w3.org/2000/svg">
<path d="M10.8791 17.5144C10.6117 17.4939 10.3629 17.3693 10.1861 17.1672L6.028 13.0007C5.93536 12.8064 5.90513 12.588 5.94149 12.3757C5.97784 12.1634 6.07898 11.9676 6.23099 11.8153C6.38299 11.663 6.57838 11.5616 6.79026 11.5252C7.00213 11.4888 7.22006 11.5191 7.41404 11.6119L10.8375 15.0423L22.6604 3.27894C22.8544 3.18611 23.0723 3.15582 23.2842 3.19225C23.4961 3.22867 23.6915 3.33002 23.8435 3.48233C23.9955 3.63464 24.0966 3.83043 24.133 4.04273C24.1693 4.25503 24.1391 4.4734 24.0465 4.66777L11.5721 17.1672C11.3953 17.3693 11.1466 17.4939 10.8791 17.5144Z" fill="url(#paint0_linear_37_277)" stroke="url(#paint1_linear_37_277)"/>
<path d="M12.9582 25.5C10.7287 25.4964 8.54096 24.8942 6.62255 23.756C4.70415 22.6177 3.12523 20.9851 2.05013 19.0281C1.2329 17.5698 0.727817 15.9569 0.56707 14.2922C0.313398 11.8507 0.78275 9.38848 1.91658 7.21259C3.0504 5.03669 4.79851 3.24347 6.94283 2.05662C8.3982 1.23775 10.0079 0.73165 11.6692 0.570579C13.3243 0.392181 14.9984 0.552836 16.5896 1.04278C16.7316 1.07121 16.8662 1.12906 16.9846 1.21262C17.103 1.29618 17.2026 1.4036 17.2772 1.52801C17.3517 1.65241 17.3995 1.79106 17.4175 1.93504C17.4354 2.07903 17.4232 2.22519 17.3815 2.36416C17.3398 2.50312 17.2695 2.63182 17.1753 2.742C17.0811 2.85219 16.9649 2.94143 16.8342 3.004C16.7036 3.06658 16.5613 3.10111 16.4166 3.10538C16.2718 3.10965 16.1278 3.08357 15.9936 3.0288C14.6473 2.62315 13.2336 2.49094 11.8355 2.63993C10.4537 2.78171 9.11469 3.20217 7.8992 3.87598C6.72818 4.52332 5.69283 5.39099 4.84992 6.43142C3.98207 7.49132 3.334 8.71408 2.94369 10.0281C2.55337 11.3421 2.42865 12.7209 2.57682 14.0839C2.71832 15.4685 3.13793 16.8102 3.81039 18.0281C4.45643 19.2015 5.32236 20.2389 6.3607 21.0835C7.41846 21.9531 8.63877 22.6025 9.95014 22.9936C11.2615 23.3847 12.6376 23.5097 13.9978 23.3612C15.3796 23.2194 16.7186 22.799 17.9341 22.1252C19.1051 21.4778 20.1405 20.6101 20.9834 19.5697C21.8512 18.5098 22.4993 17.2871 22.8896 15.9731C23.2799 14.659 23.4046 13.2802 23.2565 11.9173C23.2289 11.6281 23.3171 11.3399 23.5016 11.1159C23.6862 10.8919 23.952 10.7505 24.2406 10.7229C24.5291 10.6953 24.8168 10.7836 25.0404 10.9686C25.2639 11.1535 25.405 11.4198 25.4325 11.709C25.6849 14.1519 25.2135 16.6151 24.0771 18.7912C22.9408 20.9672 21.1898 22.7596 19.0429 23.9445C17.5721 24.7969 15.9376 25.3271 14.2472 25.5H12.9582Z" fill="url(#paint2_linear_37_277)" stroke="url(#paint3_linear_37_277)"/>
<defs>
<linearGradient id="paint0_linear_37_277" x1="5.92651" y1="10.2243" x2="24.148" y2="10.2243" gradientUnits="userSpaceOnUse">
<stop stop-color="#8A35F2"/>
<stop offset="1" stop-color="#BC4BDF"/>
</linearGradient>
<linearGradient id="paint1_linear_37_277" x1="5.92651" y1="10.2243" x2="24.148" y2="10.2243" gradientUnits="userSpaceOnUse">
<stop stop-color="#8A35F2"/>
<stop offset="1" stop-color="#BC4BDF"/>
</linearGradient>
<linearGradient id="paint2_linear_37_277" x1="0.5" y1="12.7881" x2="25.4989" y2="12.7881" gradientUnits="userSpaceOnUse">
<stop stop-color="#8A35F2"/>
<stop offset="1" stop-color="#BC4BDF"/>
</linearGradient>
<linearGradient id="paint3_linear_37_277" x1="0.5" y1="12.7881" x2="25.4989" y2="12.7881" gradientUnits="userSpaceOnUse">
<stop stop-color="#8A35F2"/>
<stop offset="1" stop-color="#BC4BDF"/>
</linearGradient>
</defs>
</svg>
