<svg width="120" height="100" viewBox="0 0 120 100" fill="none" xmlns="http://www.w3.org/2000/svg">
<g opacity="0.2">
<path d="M0 86.9333V72H4.49612V77.3667L4.26357 81.4111V85.4556V86.9333H0ZM7.28682 87.0889C6.27907 87.0889 5.50388 86.8556 4.88372 86.4667C4.26357 86.0778 3.79845 85.4556 3.56589 84.6C3.25581 83.7444 3.17829 82.6556 3.17829 81.3333C3.17829 80.0111 3.33333 79 3.64341 78.1444C3.95349 77.2889 4.4186 76.6667 5.03876 76.2778C5.65891 75.8889 6.43411 75.6556 7.36434 75.6556C8.29457 75.6556 9.2248 75.8889 10 76.3556C10.7752 76.8222 11.4729 77.4444 11.938 78.3C12.4031 79.1556 12.6357 80.1667 12.6357 81.3333C12.6357 82.5 12.4031 83.5111 11.938 84.3667C11.4729 85.2222 10.8527 85.8444 10 86.3111C9.14729 86.7778 8.29457 87.0889 7.28682 87.0889ZM6.20155 83.5889C6.51163 83.5889 6.8217 83.5111 7.13178 83.3556C7.36434 83.2 7.5969 82.9667 7.75194 82.6556C7.90698 82.3444 7.9845 81.9556 7.9845 81.4889C7.9845 81.0222 7.90698 80.6333 7.75194 80.3222C7.5969 80.0111 7.36434 79.7778 7.13178 79.6222C6.8217 79.3111 6.58915 79.2333 6.20155 79.2333C5.81395 79.2333 5.5814 79.3111 5.34884 79.4667C5.03876 79.6222 4.8062 79.8556 4.65116 80.1667C4.49612 80.4778 4.4186 80.8667 4.4186 81.3333C4.4186 81.8 4.49612 82.1889 4.65116 82.5C4.8062 82.8111 5.03876 83.0444 5.27132 83.2C5.5814 83.5111 5.89147 83.5889 6.20155 83.5889Z" fill="white"/>
<path d="M14.0311 86.9334V75.889H18.3722V79.2334L17.6745 78.3001C17.9846 77.4445 18.5273 76.8223 19.3024 76.3556C20.0001 75.889 20.9304 75.7334 21.9381 75.7334V79.7778C21.7055 79.7778 21.5505 79.7001 21.3955 79.7001C21.2404 79.7001 21.0854 79.7001 20.9304 79.7001C20.2327 79.7001 19.69 79.8556 19.2249 80.2445C18.7598 80.6334 18.6048 81.1778 18.6048 82.1112V87.0112H14.0311V86.9334Z" fill="white"/>
<path d="M26.0466 87.089C25.1164 87.089 24.4187 86.9334 23.7986 86.6223C23.1784 86.3112 22.7133 85.9223 22.4032 85.3778C22.0931 84.8334 21.9381 84.289 21.9381 83.6667C21.9381 82.9667 22.0931 82.3445 22.4807 81.8778C22.8683 81.4112 23.411 81.0223 24.1087 80.789C24.8838 80.5556 25.8141 80.4001 26.8994 80.4001H29.1474V82.5778H27.597C27.1319 82.5778 26.7443 82.6556 26.5118 82.8112C26.2792 82.9667 26.2017 83.2001 26.2017 83.5112C26.2017 83.7445 26.2792 83.9778 26.5118 84.1334C26.6668 84.289 26.9769 84.3667 27.2869 84.3667C27.597 84.3667 27.9071 84.289 28.1397 84.1334C28.3722 83.9778 28.6048 83.6667 28.6823 83.3556L29.2249 84.6778C29.0699 85.5334 28.6823 86.0778 28.1397 86.4667C27.7521 86.9334 26.9769 87.089 26.0466 87.089ZM29.1474 86.9334V84.989L28.8373 84.4445V80.7112C28.8373 80.1667 28.6823 79.7778 28.3722 79.4667C28.0621 79.1556 27.5195 79.0778 26.7443 79.0778C26.2792 79.0778 25.7366 79.1556 25.2714 79.3112C24.7288 79.4667 24.3412 79.7001 23.9536 79.9334L22.4807 76.9778C23.1009 76.589 23.8761 76.2778 24.8063 76.0445C25.7366 75.8112 26.5893 75.7334 27.442 75.7334C29.3025 75.7334 30.7753 76.1223 31.7831 76.9778C32.7908 77.8334 33.3335 79.1556 33.3335 81.0223V86.9334H29.1474Z" fill="white"/>
<path d="M42.9459 75.7334C43.7986 75.7334 44.5738 75.889 45.194 76.2778C45.8916 76.589 46.4343 77.1334 46.8219 77.9112C47.2095 78.6112 47.442 79.5445 47.442 80.7112V87.0112H42.9459V81.5667C42.9459 80.8667 42.7909 80.4001 42.5583 80.089C42.3257 79.7778 42.0157 79.6223 41.5505 79.6223C41.2405 79.6223 40.9304 79.7001 40.6978 79.8556C40.4653 80.0112 40.2327 80.2445 40.0777 80.5556C39.9226 80.8667 39.8451 81.3334 39.8451 81.8778V87.0112H35.349V75.889H39.6901V79.0778L38.7599 78.2223C39.225 77.3667 39.7676 76.7445 40.4653 76.3556C41.2405 75.889 42.0157 75.7334 42.9459 75.7334Z" fill="white"/>
<path d="M54.3413 87.0889C53.411 87.0889 52.4808 86.8556 51.7056 86.3889C50.9304 85.9222 50.2327 85.3 49.7676 84.4444C49.3025 83.5889 49.0699 82.5778 49.0699 81.4111C49.0699 80.2444 49.3025 79.2333 49.7676 78.3778C50.2327 77.5222 50.8529 76.9 51.7056 76.4333C52.4808 75.9667 53.411 75.7333 54.3413 75.7333C55.2715 75.7333 56.1242 75.9667 56.6668 76.3556C57.3645 76.7444 57.8296 77.3667 58.0622 78.2222C58.3723 79.0778 58.5273 80.0889 58.5273 81.4111C58.5273 82.7333 58.3723 83.8222 58.1397 84.6778C57.8296 85.5333 57.442 86.1556 56.8219 86.5444C56.2017 86.9333 55.349 87.0889 54.3413 87.0889ZM55.4265 83.5889C55.7366 83.5889 56.0467 83.5111 56.3568 83.3556C56.5893 83.2 56.8219 82.9667 56.9769 82.6556C57.132 82.3444 57.2095 81.9556 57.2095 81.4889C57.2095 81.0222 57.132 80.6333 56.9769 80.3222C56.8219 80.0111 56.5893 79.7778 56.3568 79.6222C56.1242 79.4667 55.8141 79.3889 55.4265 79.3889C55.0389 79.3889 54.8064 79.4667 54.4963 79.6222C54.2637 79.7778 54.0312 80.0111 53.8761 80.3222C53.7211 80.6333 53.6436 81.0222 53.6436 81.4889C53.6436 81.9556 53.7211 82.3444 53.8761 82.6556C54.0312 82.9667 54.2637 83.2 54.4963 83.3556C54.8064 83.5111 55.1165 83.5889 55.4265 83.5889ZM57.3645 86.9333V85.4556V81.4111L57.132 77.3667V72H61.6281V86.9333H57.3645Z" fill="white"/>
<path d="M69.9227 76.3555C70.7754 76.3555 71.5506 76.511 72.1707 76.8221C72.7909 77.1332 73.3335 77.6777 73.6436 78.2999C74.0312 78.9999 74.1862 79.7777 74.1862 80.7888V86.9332H73.1785V80.8666C73.1785 79.6999 72.8684 78.7666 72.3258 78.1444C71.7056 77.5221 70.9304 77.211 69.8452 77.211C68.9924 77.211 68.2948 77.3666 67.7521 77.6777C67.132 77.9888 66.6669 78.4555 66.3568 79.0777C66.0467 79.6999 65.8917 80.3999 65.8917 81.2555V86.8555H64.8839V76.4332H65.8141V79.311L65.6591 78.9999C65.9692 78.1444 66.5118 77.5221 67.2095 77.0555C67.9072 76.5888 68.8374 76.3555 69.9227 76.3555Z" fill="white"/>
<path d="M81.0853 87.0112C80.3101 87.0112 79.6124 86.8556 79.0698 86.6223C78.5272 86.3889 78.0621 86.0001 77.752 85.5334C77.4419 85.0667 77.2869 84.5223 77.2869 83.9778C77.2869 83.4334 77.4419 82.9667 77.6745 82.5001C77.907 82.0334 78.2946 81.7223 78.9148 81.4112C79.4574 81.1001 80.2326 81.0223 81.2404 81.0223H85.1163V81.8001H81.3179C80.2326 81.8001 79.4574 82.0334 79.0698 82.4223C78.6047 82.8112 78.4497 83.3556 78.4497 83.9001C78.4497 84.6001 78.6822 85.0667 79.2248 85.5334C79.7675 85.9223 80.4652 86.1556 81.3954 86.1556C82.2481 86.1556 83.0233 85.9223 83.6435 85.5334C84.2636 85.1445 84.7287 84.5223 84.9613 83.8223L85.2714 84.5223C84.9613 85.3001 84.4962 85.9223 83.876 86.3112C83.0233 86.7778 82.0931 87.0112 81.0853 87.0112ZM84.8838 86.9334V84.5223L84.8062 84.1334V80.1667C84.8062 79.1556 84.5737 78.4556 84.0311 77.9112C83.4884 77.3667 82.7132 77.1334 81.7055 77.1334C81.0078 77.1334 80.3101 77.2889 79.69 77.5223C79.0698 77.7556 78.5272 78.0667 78.0621 78.4556L77.5969 77.7556C78.1396 77.2889 78.7597 76.9001 79.4574 76.6667C80.1551 76.4334 80.9303 76.2778 81.783 76.2778C83.1008 76.2778 84.1086 76.5889 84.7287 77.2889C85.3489 77.9889 85.7365 78.9223 85.7365 80.2445V86.8556H84.8838V86.9334Z" fill="white"/>
<path d="M102.946 76.3555C103.798 76.3555 104.496 76.511 105.116 76.8221C105.736 77.1332 106.202 77.6777 106.589 78.2999C106.899 78.9999 107.132 79.7777 107.132 80.7888V86.9332H106.124V80.8666C106.124 79.6999 105.814 78.7666 105.271 78.1444C104.729 77.5221 103.876 77.211 102.868 77.211C102.093 77.211 101.395 77.3666 100.853 77.6777C100.31 77.9888 99.845 78.4555 99.5349 79.0777C99.2248 79.6999 99.0698 80.3999 99.0698 81.2555V86.8555H98.062V80.7888C98.062 79.6221 97.7519 78.6888 97.2093 78.0666C96.6667 77.4444 95.814 77.1332 94.8062 77.1332C94.031 77.1332 93.3333 77.2888 92.7907 77.5999C92.2481 77.911 91.783 78.3777 91.4729 78.9999C91.1628 79.6221 91.0078 80.3221 91.0078 81.1777V86.7777H89.9225V76.4332H90.8527V79.311L90.7752 78.9999C91.0853 78.1444 91.6279 77.5221 92.3256 77.0555C93.0233 76.5888 93.876 76.3555 94.9612 76.3555C95.969 76.3555 96.8992 76.5888 97.5969 77.1332C98.2946 77.6777 98.7597 78.4555 98.9147 79.4666L98.6047 79.311C98.9147 78.3777 99.3798 77.6777 100.155 77.1332C100.93 76.5888 101.86 76.3555 102.946 76.3555Z" fill="white"/>
<path d="M115.504 87.0111C114.419 87.0111 113.488 86.7778 112.713 86.3111C111.938 85.8445 111.24 85.2222 110.775 84.4445C110.31 83.6667 110.078 82.7333 110.078 81.7222C110.078 80.7111 110.31 79.7778 110.698 79C111.163 78.2222 111.705 77.6 112.481 77.1333C113.256 76.6667 114.109 76.4333 115.039 76.4333C115.969 76.4333 116.822 76.6667 117.597 77.1333C118.372 77.6 118.915 78.2222 119.38 79C119.845 79.7778 120 80.7111 120 81.7222C120 81.8 120 81.8 120 81.8778C120 81.9556 120 81.9556 120 82.0333H110.853V81.2556H119.535L119.147 81.6445C119.147 80.7889 118.992 80.0889 118.605 79.4667C118.217 78.8445 117.752 78.3 117.209 77.9111C116.589 77.5222 115.891 77.3667 115.116 77.3667C114.341 77.3667 113.643 77.5222 113.023 77.9111C112.403 78.3 111.938 78.7667 111.628 79.4667C111.318 80.0889 111.085 80.8667 111.085 81.7222V81.8778C111.085 82.7333 111.24 83.5111 111.628 84.1333C112.015 84.8333 112.558 85.3 113.178 85.6889C113.876 86.0778 114.574 86.2333 115.426 86.2333C116.124 86.2333 116.744 86.0778 117.287 85.8445C117.829 85.6111 118.372 85.2222 118.76 84.7556L119.302 85.4556C118.837 86 118.295 86.4667 117.597 86.7C116.977 86.8556 116.279 87.0111 115.504 87.0111Z" fill="white"/>
<path d="M29.3022 97.8997C29.4573 98.0553 29.8449 98.1331 30.155 98.1331C30.6201 98.1331 30.8526 97.8998 30.8526 97.5886C30.8526 97.2775 30.6976 97.122 30.2325 96.9664C29.6123 96.7331 29.3022 96.422 29.3022 96.0331C29.3022 95.4886 29.7674 95.022 30.465 95.022C30.7751 95.022 31.0852 95.0997 31.3178 95.2553L31.1627 95.722C31.0077 95.6442 30.7751 95.4886 30.465 95.4886C30.0774 95.4886 29.9224 95.722 29.9224 95.9553C29.9224 96.2664 30.155 96.3442 30.5426 96.4998C31.1627 96.7331 31.4728 97.0442 31.4728 97.5109C31.4728 98.1331 31.0077 98.522 30.2325 98.522C29.8449 98.522 29.5348 98.4442 29.3022 98.2886V97.8997Z" fill="white"/>
<path d="M34.9613 93.5444H35.5815V98.5222H34.9613V93.5444Z" fill="white"/>
<path d="M42.5583 96.8109C42.5583 98.0553 41.7056 98.5998 40.8529 98.5998C39.9227 98.5998 39.225 97.8997 39.225 96.8109C39.225 95.6442 40.0002 95.022 40.9304 95.022C41.8606 95.022 42.5583 95.722 42.5583 96.8109ZM39.8451 96.8109C39.8451 97.5886 40.3102 98.1331 40.8529 98.1331C41.473 98.1331 41.8606 97.5886 41.8606 96.8109C41.8606 96.2664 41.5506 95.4886 40.8529 95.4886C40.1552 95.4886 39.8451 96.1886 39.8451 96.8109Z" fill="white"/>
<path d="M49.0698 95.0998C49.0698 95.3331 49.0698 95.6442 49.0698 96.0331V98.0553C49.0698 98.8331 48.9147 99.2998 48.6047 99.6109C48.2946 99.922 47.8295 99.9998 47.3643 99.9998C46.9767 99.9998 46.5116 99.922 46.2016 99.6886L46.3566 99.222C46.5892 99.3775 46.8992 99.4553 47.3643 99.4553C47.9845 99.4553 48.4496 99.1442 48.4496 98.2886V97.8997C48.2946 98.2109 47.907 98.4442 47.3643 98.4442C46.5116 98.4442 45.8915 97.7442 45.8915 96.8109C45.8915 95.6442 46.6667 95.022 47.4419 95.022C48.062 95.022 48.3721 95.3331 48.5271 95.6442V95.0998H49.0698ZM48.4496 96.422C48.4496 96.3442 48.4496 96.1886 48.4496 96.1109C48.3721 95.722 48.062 95.4886 47.5969 95.4886C46.9768 95.4886 46.5892 95.9553 46.5892 96.8109C46.5892 97.5109 46.8992 98.0553 47.5969 98.0553C47.9845 98.0553 48.2946 97.822 48.4496 97.4331C48.4496 97.3553 48.5271 97.1997 48.5271 97.122V96.422H48.4496Z" fill="white"/>
<path d="M54.7289 98.522L54.6514 98.0553C54.4963 98.2886 54.1087 98.5998 53.6436 98.5998C52.9459 98.5998 52.6359 98.1331 52.6359 97.5886C52.6359 96.7331 53.3335 96.3442 54.6514 96.3442V96.2664C54.6514 95.9553 54.5738 95.4886 53.8762 95.4886C53.5661 95.4886 53.256 95.5664 53.0235 95.722L52.8684 95.3331C53.1785 95.1775 53.5661 95.022 53.9537 95.022C54.9614 95.022 55.2715 95.722 55.2715 96.422V97.6664C55.2715 97.9775 55.2715 98.2886 55.349 98.522H54.7289ZM54.6514 96.8109C53.9537 96.8109 53.1785 96.8886 53.1785 97.5886C53.1785 97.9775 53.4111 98.2109 53.7987 98.2109C54.2638 98.2109 54.4963 97.8998 54.6514 97.6664C54.6514 97.5886 54.6514 97.5109 54.6514 97.4331V96.8109Z" fill="white"/>
<path d="M59.0697 96.0331C59.0697 95.6442 59.0697 95.4109 59.0697 95.0998H59.6123V95.6442C59.7674 95.3331 60.155 95.022 60.7751 95.022C61.2402 95.022 62.0154 95.3331 62.0154 96.4998V98.522H61.3953V96.5775C61.3953 96.0331 61.1627 95.5664 60.6201 95.5664C60.2325 95.5664 59.9224 95.8775 59.7674 96.1886C59.7674 96.2664 59.6899 96.3442 59.6899 96.4998V98.522H59.0697V96.0331Z" fill="white"/>
<path d="M70.0775 93.5444H70.6976V95.6444C70.7751 95.4889 70.9302 95.3333 71.1627 95.1778C71.3178 95.1 71.5503 95.0222 71.7829 95.0222C72.248 95.0222 72.9457 95.3333 72.9457 96.5V98.5222H72.3255V96.5778C72.3255 96.0333 72.093 95.5667 71.5503 95.5667C71.1627 95.5667 70.8526 95.8778 70.6976 96.1889C70.6976 96.2667 70.6201 96.3444 70.6201 96.5V98.6H69.9999V93.5444H70.0775Z" fill="white"/>
<path d="M77.132 96.9668C77.132 97.8223 77.6746 98.1334 78.2948 98.1334C78.7599 98.1334 78.9925 98.0557 79.225 97.9779L79.3025 98.4445C79.07 98.5223 78.6824 98.6779 78.1398 98.6779C77.0545 98.6779 76.4343 97.9779 76.4343 96.9668C76.4343 95.9557 77.0545 95.1001 78.0622 95.1001C79.1475 95.1001 79.4576 96.1112 79.4576 96.7334C79.4576 96.889 79.4576 96.9668 79.4576 97.0445H77.132V96.9668ZM78.9925 96.5001C78.9925 96.1112 78.8374 95.489 78.1398 95.489C77.5196 95.489 77.2095 96.0334 77.2095 96.5001H78.9925Z" fill="white"/>
<path d="M83.101 96.1886C83.101 95.7998 83.101 95.4109 83.101 95.0998H83.6436V95.7998C83.7986 95.3331 84.1862 95.022 84.5738 95.022C84.6513 95.022 84.7289 95.022 84.7289 95.022V95.6442C84.6513 95.6442 84.5738 95.6442 84.4963 95.6442C84.0312 95.6442 83.7211 95.9553 83.6436 96.422C83.6436 96.4997 83.6436 96.5775 83.6436 96.7331V98.522H83.0234V96.1886H83.101Z" fill="white"/>
<path d="M88.527 96.9668C88.527 97.8223 89.0697 98.1334 89.6898 98.1334C90.1549 98.1334 90.3875 98.0557 90.62 97.9779L90.6976 98.4445C90.465 98.5223 90.0774 98.6779 89.5348 98.6779C88.4495 98.6779 87.8293 97.9779 87.8293 96.9668C87.8293 95.9557 88.4495 95.1001 89.4573 95.1001C90.5425 95.1001 90.8526 96.1112 90.8526 96.7334C90.8526 96.889 90.8526 96.9668 90.8526 97.0445H88.527V96.9668ZM90.31 96.5001C90.31 96.1112 90.1549 95.489 89.4573 95.489C88.8371 95.489 88.527 96.0334 88.527 96.5001H90.31Z" fill="white"/>
<path d="M42.2439 54.466C42.3104 55.6745 43.3092 56.6816 44.5077 56.6816C45.3067 56.6816 46.0391 56.2788 46.4386 55.6745C50.8998 56.2788 55.5606 55.0702 59.1561 52.3175C64.4828 48.1547 66.8799 41.1049 65.2153 34.5251C63.2178 26.8039 55.9601 21.2983 48.0366 21.7012C40.0466 22.0369 33.1885 28.281 31.99 36.2708C30.9246 43.992 35.2526 51.3775 42.2439 54.466ZM37.1169 28.0796C42.377 22.2383 51.4324 21.164 57.8245 25.7296C63.5507 29.7581 65.9477 37.4121 63.6173 44.0591C61.1537 51.1089 53.9626 55.3388 46.8381 54.466V54.3988C46.8381 53.1232 45.8394 52.0489 44.5743 52.0489C43.7087 52.0489 42.9097 52.5189 42.5102 53.2574C40.3795 52.3175 38.4486 50.9075 36.9172 49.0947C31.7902 43.1191 31.8568 33.9208 37.1169 28.0796ZM42.7099 43.522C42.4436 43.8577 42.2439 44.3277 42.2439 44.8648C42.2439 46.0733 43.176 47.0133 44.3745 47.0133C45.0404 47.0133 45.7062 46.6776 46.1057 46.1405C49.9676 47.2819 54.2955 44.9319 55.2277 40.8363C55.8935 38.2178 54.9614 35.3308 52.9639 33.518C50.7666 31.5709 47.6371 31.168 45.0404 32.4437C40.8456 34.4579 39.6471 40.0307 42.5102 43.6563L42.7099 43.522ZM41.7778 38.6878C41.9775 36.0693 43.7753 33.7194 46.2389 32.9808C48.9688 32.108 52.0317 33.1823 53.5631 35.5993C55.0945 37.9493 54.8948 41.1049 53.097 43.2534C51.499 45.2005 48.8357 46.0062 46.5052 45.3348C46.5718 45.2005 46.5718 44.9991 46.5718 44.8648C46.5718 43.6563 45.6396 42.7163 44.4411 42.7163C43.975 42.7163 43.509 42.8506 43.176 43.1191C42.1107 41.8435 41.6446 40.2992 41.7778 38.6878ZM66.4804 53.526C61.9527 59.0316 54.9614 62.1872 47.9035 61.9186C44.0416 61.7843 40.2464 60.6429 36.9837 58.6959C36.4511 59.4344 35.5855 59.8372 34.6533 59.8372C33.0553 59.8372 31.7236 58.4944 31.7902 56.883C31.7902 55.2717 33.1219 53.9288 34.7199 53.996C36.3179 53.996 37.6496 55.3388 37.583 56.9502C37.583 57.0173 37.583 57.1516 37.583 57.2188C43.975 61.1129 52.0983 61.3815 58.6901 57.8902C65.5482 54.2645 70.0759 47.0133 70.2756 39.1578C70.4754 32.108 67.1462 25.1925 61.4866 21.0297C55.1611 16.3299 46.4386 15.457 39.3142 18.9484C38.9813 19.0827 38.7149 19.2841 38.382 19.4184C38.382 19.5526 38.382 19.6869 38.382 19.8212C38.382 21.3654 37.1169 22.6411 35.5855 22.6411C34.0541 22.6411 32.789 21.3654 32.789 19.8212C32.789 18.277 34.0541 17.0013 35.5855 17.0013C36.4511 17.0013 37.1835 17.4041 37.7162 18.0084C43.3758 14.9871 50.2339 14.3828 56.293 16.5313C62.9514 18.8812 68.2115 24.2525 70.542 30.9666C73.2053 38.5535 71.6073 47.2819 66.4804 53.526ZM46.5718 39.8292C46.5718 39.7621 46.5718 39.7621 46.5718 39.7621C46.5052 39.7621 46.5052 39.7621 46.5718 39.8292C46.5718 39.7621 46.5718 39.7621 46.5718 39.8292ZM53.896 50.0347C58.5569 47.5504 61.0205 42.3134 60.2215 37.2107C61.0871 36.7407 61.6197 35.8679 61.6197 34.8608C61.6197 33.3837 60.4212 32.108 58.9564 32.108C58.6901 32.108 58.4903 32.108 58.224 32.1752C56.7591 30.0266 54.695 28.3481 52.2314 27.4753C52.2314 27.341 52.298 27.1396 52.298 27.0053C52.298 25.5953 51.1661 24.4539 49.8344 24.4539C48.5027 24.4539 47.4374 25.4611 47.3042 26.8039C43.975 27.0053 40.779 28.6167 38.6483 31.3023C34.9862 35.8008 34.9862 42.3806 38.5818 46.879C42.2439 51.4446 48.8357 52.7874 53.896 50.0347ZM44.9072 28.1467C45.7728 27.8781 46.6384 27.7438 47.504 27.6767C47.7703 28.751 48.7691 29.4895 49.901 29.4895C50.7666 29.4895 51.5656 29.0195 52.0317 28.3481C54.2289 29.1538 56.1599 30.6309 57.5581 32.578C56.8257 33.048 56.3596 33.8537 56.3596 34.7936C56.3596 36.2708 57.5581 37.5464 59.023 37.5464C59.1561 37.5464 59.3559 37.5464 59.4891 37.4793C59.6888 38.8892 59.6222 40.2992 59.3559 41.7092C58.0908 47.2819 52.7641 51.1089 47.1045 50.5718C41.4449 49.9675 36.9837 45.1334 36.8506 39.4264C36.7174 34.3237 40.0466 29.6238 44.9072 28.1467ZM24.8655 39.5607C23.2675 39.5607 21.9358 38.2178 22.0024 36.6065C22.0024 34.9951 23.3341 33.6523 24.9321 33.7194C26.5301 33.7194 27.8618 35.0622 27.7952 36.6736C27.7952 38.285 26.5301 39.5607 24.8655 39.5607ZM30.3254 47.9533C30.3254 49.5647 28.9937 50.9075 27.3957 50.8404C25.7977 50.8404 24.466 49.4975 24.5326 47.8861C24.5326 46.2748 25.8643 44.9319 27.4623 44.9991C28.9937 44.9991 30.3254 46.3419 30.3254 47.9533ZM31.0578 26.871C31.0578 28.4824 29.7261 29.8252 28.1281 29.7581C26.5301 29.7581 25.1984 28.4153 25.265 26.8039C25.265 25.1925 26.5967 23.8497 28.1947 23.9168C29.7927 23.9168 31.0578 25.2596 31.0578 26.871Z" fill="white"/>
<path d="M97.9745 7.19871C97.8413 5.99017 96.7094 5.11734 95.5109 5.25162C95.3112 5.25162 95.1114 5.31876 94.9782 5.3859C93.58 3.77451 91.6491 2.70026 89.5184 2.23027C89.5184 2.09599 89.5184 1.96171 89.5184 1.82743C89.3852 0.686029 88.3199 -0.119667 87.1879 0.0146155C86.1226 0.148898 85.3236 1.15601 85.3902 2.23027C82.7268 2.7674 80.2632 4.44593 78.7984 6.863C76.3348 10.9586 77.0672 16.3299 80.463 19.6198C83.9253 22.9097 89.4518 23.3125 93.3136 20.4926C96.8426 17.9413 98.2408 13.3757 97.0423 9.28008C97.7082 8.87723 98.1077 8.07154 97.9745 7.19871ZM96.776 13.1071C96.3765 17.807 92.4481 21.5669 87.7872 21.7012C83.1263 21.9026 78.9315 18.4113 78.1991 13.7114C77.5333 9.54864 79.7971 5.31876 83.5924 3.57309C84.2583 3.23739 84.9241 3.03596 85.6565 2.90168C85.9894 3.70737 86.855 4.2445 87.7872 4.11022C88.5196 4.04308 89.1189 3.57309 89.3852 2.90168C91.2496 3.30453 93.0473 4.2445 94.379 5.7216C93.8463 6.19159 93.58 6.93014 93.6466 7.66869C93.7797 8.87723 94.9117 9.75007 96.1102 9.61578C96.2433 9.61578 96.3765 9.54864 96.4431 9.54864C96.776 10.7572 96.8426 11.9657 96.776 13.1071Z" fill="white"/>
<path d="M93.58 58.0245C93.58 61.3144 90.9167 64 87.6541 64C84.3914 64 81.7281 61.3144 81.7281 58.0245V30.6309C81.7281 27.341 84.3914 24.6554 87.6541 24.6554C90.9167 24.6554 93.58 27.341 93.58 30.6309V58.0245ZM87.6541 7.60156C84.7244 7.60156 82.3273 10.0186 82.3273 12.9728C82.3273 15.927 84.7244 18.3441 87.6541 18.3441C90.5837 18.3441 92.9808 15.927 92.9808 12.9728C92.9808 9.9515 90.5837 7.60156 87.6541 7.60156ZM45.5731 16.6656C44.1083 14.1814 39.3142 14.3828 35.9185 16.1956C27.9284 20.4255 22.0024 28.281 22.0024 37.9493C22.0024 41.0378 22.3354 43.522 23.0678 45.8719C23.0678 45.8719 24 49.4976 24.799 50.4375C25.9975 51.9146 29.7927 54.6003 32.5893 53.056C36.9172 50.7061 35.519 46.0062 35.4524 45.8719C35.3858 45.6705 35.3192 45.4691 35.186 45.2677L34.0541 42.1792C33.7878 41.0378 33.6546 39.8292 33.6546 38.5536C33.6546 32.7123 36.8506 27.6096 41.5781 24.9911C42.4437 24.5882 43.4424 24.1182 43.9085 23.8497C45.7729 22.6411 47.0379 19.1498 45.5731 16.6656ZM76.5346 39.8964C76.5346 31.1009 73.4717 22.4397 68.6777 18.277C66.6136 16.4642 63.9502 15.927 61.8861 15.6585C59.4225 15.3228 56.6926 16.4642 55.3609 18.8812C53.9627 21.5669 54.6951 24.9239 57.2253 26.0653C62.8183 28.6838 64.3497 38.0836 64.3497 39.8292C64.3497 40.2321 64.4163 46.3419 64.4163 46.3419V54.8017C64.4163 58.6959 67.2794 61.8515 70.6086 61.8515C73.9378 61.8515 76.8009 58.6959 76.8009 54.8017C76.8009 54.8688 76.5346 40.2992 76.5346 39.8964Z" fill="white"/>
<mask id="mask0_18_2514" style="mask-type:luminance" maskUnits="userSpaceOnUse" x="22" y="7" width="72" height="57">
<path d="M93.58 58.0245C93.58 61.3144 90.9167 64 87.6541 64C84.3914 64 81.7281 61.3144 81.7281 58.0245V30.6309C81.7281 27.341 84.3914 24.6554 87.6541 24.6554C90.9167 24.6554 93.58 27.341 93.58 30.6309V58.0245ZM87.6541 7.60156C84.7244 7.60156 82.3273 10.0186 82.3273 12.9728C82.3273 15.927 84.7244 18.3441 87.6541 18.3441C90.5837 18.3441 92.9808 15.927 92.9808 12.9728C92.9808 9.9515 90.5837 7.60156 87.6541 7.60156ZM45.5731 16.6656C44.1083 14.1814 39.3142 14.3828 35.9185 16.1956C27.9284 20.4255 22.0024 28.281 22.0024 37.9493C22.0024 41.0378 22.3354 43.522 23.0678 45.8719C23.0678 45.8719 24 49.4976 24.799 50.4375C25.9975 51.9146 29.7927 54.6003 32.5893 53.056C36.9172 50.7061 35.519 46.0062 35.4524 45.8719C35.3858 45.6705 35.3192 45.4691 35.186 45.2677L34.0541 42.1792C33.7878 41.0378 33.6546 39.8292 33.6546 38.5536C33.6546 32.7123 36.8506 27.6096 41.5781 24.9911C42.4437 24.5882 43.4424 24.1182 43.9085 23.8497C45.7729 22.6411 47.0379 19.1498 45.5731 16.6656ZM76.5346 39.8964C76.5346 31.1009 73.4717 22.4397 68.6777 18.277C66.6136 16.4642 63.9502 15.927 61.8861 15.6585C59.4225 15.3228 56.6926 16.4642 55.3609 18.8812C53.9627 21.5669 54.6951 24.9239 57.2253 26.0653C62.8183 28.6838 64.3497 38.0836 64.3497 39.8292C64.3497 40.2321 64.4163 46.3419 64.4163 46.3419V54.8017C64.4163 58.6959 67.2794 61.8515 70.6086 61.8515C73.9378 61.8515 76.8009 58.6959 76.8009 54.8017C76.8009 54.8688 76.5346 40.2992 76.5346 39.8964Z" fill="white"/>
</mask>
<g mask="url(#mask0_18_2514)">
<path d="M80.9957 -17.1735C50.9665 -27.3789 18.4736 -11.0637 8.41942 19.1498C-1.70131 49.4304 14.4785 82.1952 44.4412 92.3335C74.4705 102.539 106.963 86.2237 117.018 56.0102C127.138 25.7968 111.025 -7.0352 80.9957 -17.1735ZM52.4313 68.4984C35.519 62.7243 26.397 44.2605 32.0567 27.2067C37.7829 10.1529 56.0934 0.954578 73.0057 6.66157C89.918 12.4357 99.04 30.8995 93.3803 47.9533C87.7207 65.0742 69.3436 74.2726 52.4313 68.4984Z" fill="white"/>
<path opacity="0.4" d="M72.0068 4.17738C44.7075 -5.02094 15.2108 9.75008 6.02229 37.2108C-3.16628 64.6714 11.5487 94.482 38.7815 103.748C66.0143 113.013 95.5775 98.1748 104.766 70.7141C113.888 43.2534 99.2396 13.4428 72.0068 4.17738ZM46.0391 82.061C30.6583 76.824 22.3353 60.0387 27.5288 44.5291C32.7224 29.0195 49.3683 20.6941 64.7492 25.8639C80.13 31.1009 88.3864 47.8862 83.2595 63.3957C78.0659 78.9053 61.42 87.298 46.0391 82.061Z" fill="white"/>
<path d="M77.9328 -52.624C43.4424 -64.3065 6.02227 -45.6413 -5.56331 -10.7952C-17.1489 23.9839 1.36141 61.7171 35.9184 73.3997C70.4088 85.0822 107.829 66.417 119.414 31.5708C131 -3.20822 112.423 -40.9415 77.9328 -52.624ZM45.0404 45.939C25.5979 39.3592 15.0777 18.0755 21.6695 -1.59684C28.1947 -21.202 49.3017 -31.8103 68.8108 -25.1633C88.2532 -18.5835 98.7735 2.70018 92.1817 22.3725C85.5899 41.9777 64.5494 52.5188 45.0404 45.939Z" fill="white"/>
</g>
</g>
</svg>
