<svg width="120" height="100" viewBox="0 0 120 100" fill="none" xmlns="http://www.w3.org/2000/svg">
<path d="M0 86.9333V72H4.49612V77.3667L4.26357 81.4111V85.4556V86.9333H0ZM7.28682 87.0889C6.27907 87.0889 5.50388 86.8556 4.88372 86.4667C4.26357 86.0778 3.79845 85.4556 3.56589 84.6C3.25581 83.7444 3.17829 82.6556 3.17829 81.3333C3.17829 80.0111 3.33333 79 3.64341 78.1444C3.95349 77.2889 4.4186 76.6667 5.03876 76.2778C5.65891 75.8889 6.43411 75.6556 7.36434 75.6556C8.29457 75.6556 9.2248 75.8889 10 76.3556C10.7752 76.8222 11.4729 77.4444 11.938 78.3C12.4031 79.1556 12.6357 80.1667 12.6357 81.3333C12.6357 82.5 12.4031 83.5111 11.938 84.3667C11.4729 85.2222 10.8527 85.8444 10 86.3111C9.14729 86.7778 8.29457 87.0889 7.28682 87.0889ZM6.20155 83.5889C6.51163 83.5889 6.8217 83.5111 7.13178 83.3556C7.36434 83.2 7.5969 82.9667 7.75194 82.6556C7.90698 82.3444 7.9845 81.9556 7.9845 81.4889C7.9845 81.0222 7.90698 80.6333 7.75194 80.3222C7.5969 80.0111 7.36434 79.7778 7.13178 79.6222C6.8217 79.3111 6.58915 79.2333 6.20155 79.2333C5.81395 79.2333 5.5814 79.3111 5.34884 79.4667C5.03876 79.6222 4.8062 79.8556 4.65116 80.1667C4.49612 80.4778 4.4186 80.8667 4.4186 81.3333C4.4186 81.8 4.49612 82.1889 4.65116 82.5C4.8062 82.8111 5.03876 83.0444 5.27132 83.2C5.5814 83.5111 5.89147 83.5889 6.20155 83.5889Z" fill="url(#paint0_linear_18_2386)"/>
<path d="M14.0311 86.9334V75.889H18.3722V79.2334L17.6745 78.3001C17.9846 77.4445 18.5273 76.8223 19.3024 76.3556C20.0001 75.889 20.9304 75.7334 21.9381 75.7334V79.7778C21.7055 79.7778 21.5505 79.7001 21.3955 79.7001C21.2404 79.7001 21.0854 79.7001 20.9304 79.7001C20.2327 79.7001 19.69 79.8556 19.2249 80.2445C18.7598 80.6334 18.6048 81.1778 18.6048 82.1112V87.0112H14.0311V86.9334Z" fill="url(#paint1_linear_18_2386)"/>
<path d="M26.0466 87.089C25.1164 87.089 24.4187 86.9334 23.7986 86.6223C23.1784 86.3112 22.7133 85.9223 22.4032 85.3778C22.0931 84.8334 21.9381 84.289 21.9381 83.6667C21.9381 82.9667 22.0931 82.3445 22.4807 81.8778C22.8683 81.4112 23.411 81.0223 24.1087 80.789C24.8838 80.5556 25.8141 80.4001 26.8994 80.4001H29.1474V82.5778H27.597C27.1319 82.5778 26.7443 82.6556 26.5118 82.8112C26.2792 82.9667 26.2017 83.2001 26.2017 83.5112C26.2017 83.7445 26.2792 83.9778 26.5118 84.1334C26.6668 84.289 26.9769 84.3667 27.2869 84.3667C27.597 84.3667 27.9071 84.289 28.1397 84.1334C28.3722 83.9778 28.6048 83.6667 28.6823 83.3556L29.2249 84.6778C29.0699 85.5334 28.6823 86.0778 28.1397 86.4667C27.7521 86.9334 26.9769 87.089 26.0466 87.089ZM29.1474 86.9334V84.989L28.8373 84.4445V80.7112C28.8373 80.1667 28.6823 79.7778 28.3722 79.4667C28.0621 79.1556 27.5195 79.0778 26.7443 79.0778C26.2792 79.0778 25.7366 79.1556 25.2714 79.3112C24.7288 79.4667 24.3412 79.7001 23.9536 79.9334L22.4807 76.9778C23.1009 76.589 23.8761 76.2778 24.8063 76.0445C25.7366 75.8112 26.5893 75.7334 27.442 75.7334C29.3025 75.7334 30.7753 76.1223 31.7831 76.9778C32.7908 77.8334 33.3335 79.1556 33.3335 81.0223V86.9334H29.1474Z" fill="url(#paint2_linear_18_2386)"/>
<path d="M42.9459 75.7334C43.7986 75.7334 44.5738 75.889 45.194 76.2778C45.8916 76.589 46.4343 77.1334 46.8219 77.9112C47.2095 78.6112 47.442 79.5445 47.442 80.7112V87.0112H42.9459V81.5667C42.9459 80.8667 42.7909 80.4001 42.5583 80.089C42.3257 79.7778 42.0157 79.6223 41.5505 79.6223C41.2405 79.6223 40.9304 79.7001 40.6978 79.8556C40.4653 80.0112 40.2327 80.2445 40.0777 80.5556C39.9226 80.8667 39.8451 81.3334 39.8451 81.8778V87.0112H35.349V75.889H39.6901V79.0778L38.7599 78.2223C39.225 77.3667 39.7676 76.7445 40.4653 76.3556C41.2405 75.889 42.0157 75.7334 42.9459 75.7334Z" fill="url(#paint3_linear_18_2386)"/>
<path d="M54.3413 87.0889C53.411 87.0889 52.4808 86.8556 51.7056 86.3889C50.9304 85.9222 50.2327 85.3 49.7676 84.4444C49.3025 83.5889 49.0699 82.5778 49.0699 81.4111C49.0699 80.2444 49.3025 79.2333 49.7676 78.3778C50.2327 77.5222 50.8529 76.9 51.7056 76.4333C52.4808 75.9667 53.411 75.7333 54.3413 75.7333C55.2715 75.7333 56.1242 75.9667 56.6668 76.3556C57.3645 76.7444 57.8296 77.3667 58.0622 78.2222C58.3723 79.0778 58.5273 80.0889 58.5273 81.4111C58.5273 82.7333 58.3723 83.8222 58.1397 84.6778C57.8296 85.5333 57.442 86.1556 56.8219 86.5444C56.2017 86.9333 55.349 87.0889 54.3413 87.0889ZM55.4265 83.5889C55.7366 83.5889 56.0467 83.5111 56.3568 83.3556C56.5893 83.2 56.8219 82.9667 56.9769 82.6556C57.132 82.3444 57.2095 81.9556 57.2095 81.4889C57.2095 81.0222 57.132 80.6333 56.9769 80.3222C56.8219 80.0111 56.5893 79.7778 56.3568 79.6222C56.1242 79.4667 55.8141 79.3889 55.4265 79.3889C55.0389 79.3889 54.8064 79.4667 54.4963 79.6222C54.2637 79.7778 54.0312 80.0111 53.8761 80.3222C53.7211 80.6333 53.6436 81.0222 53.6436 81.4889C53.6436 81.9556 53.7211 82.3444 53.8761 82.6556C54.0312 82.9667 54.2637 83.2 54.4963 83.3556C54.8064 83.5111 55.1165 83.5889 55.4265 83.5889ZM57.3645 86.9333V85.4556V81.4111L57.132 77.3667V72H61.6281V86.9333H57.3645Z" fill="url(#paint4_linear_18_2386)"/>
<path d="M69.9227 76.3555C70.7754 76.3555 71.5506 76.511 72.1707 76.8221C72.7909 77.1332 73.3335 77.6777 73.6436 78.2999C74.0312 78.9999 74.1862 79.7777 74.1862 80.7888V86.9332H73.1785V80.8666C73.1785 79.6999 72.8684 78.7666 72.3258 78.1444C71.7056 77.5221 70.9304 77.211 69.8452 77.211C68.9924 77.211 68.2948 77.3666 67.7521 77.6777C67.132 77.9888 66.6669 78.4555 66.3568 79.0777C66.0467 79.6999 65.8917 80.3999 65.8917 81.2555V86.8555H64.8839V76.4332H65.8141V79.311L65.6591 78.9999C65.9692 78.1444 66.5118 77.5221 67.2095 77.0555C67.9072 76.5888 68.8374 76.3555 69.9227 76.3555Z" fill="url(#paint5_linear_18_2386)"/>
<path d="M81.0853 87.0112C80.3101 87.0112 79.6124 86.8556 79.0698 86.6223C78.5272 86.3889 78.0621 86.0001 77.752 85.5334C77.4419 85.0667 77.2869 84.5223 77.2869 83.9778C77.2869 83.4334 77.4419 82.9667 77.6745 82.5001C77.907 82.0334 78.2946 81.7223 78.9148 81.4112C79.4574 81.1001 80.2326 81.0223 81.2404 81.0223H85.1163V81.8001H81.3179C80.2326 81.8001 79.4574 82.0334 79.0698 82.4223C78.6047 82.8112 78.4497 83.3556 78.4497 83.9001C78.4497 84.6001 78.6822 85.0667 79.2248 85.5334C79.7675 85.9223 80.4652 86.1556 81.3954 86.1556C82.2481 86.1556 83.0233 85.9223 83.6435 85.5334C84.2636 85.1445 84.7287 84.5223 84.9613 83.8223L85.2714 84.5223C84.9613 85.3001 84.4962 85.9223 83.876 86.3112C83.0233 86.7778 82.0931 87.0112 81.0853 87.0112ZM84.8838 86.9334V84.5223L84.8062 84.1334V80.1667C84.8062 79.1556 84.5737 78.4556 84.0311 77.9112C83.4884 77.3667 82.7132 77.1334 81.7055 77.1334C81.0078 77.1334 80.3101 77.2889 79.69 77.5223C79.0698 77.7556 78.5272 78.0667 78.0621 78.4556L77.5969 77.7556C78.1396 77.2889 78.7597 76.9001 79.4574 76.6667C80.1551 76.4334 80.9303 76.2778 81.783 76.2778C83.1008 76.2778 84.1086 76.5889 84.7287 77.2889C85.3489 77.9889 85.7365 78.9223 85.7365 80.2445V86.8556H84.8838V86.9334Z" fill="url(#paint6_linear_18_2386)"/>
<path d="M102.946 76.3555C103.798 76.3555 104.496 76.511 105.116 76.8221C105.736 77.1332 106.202 77.6777 106.589 78.2999C106.899 78.9999 107.132 79.7777 107.132 80.7888V86.9332H106.124V80.8666C106.124 79.6999 105.814 78.7666 105.271 78.1444C104.729 77.5221 103.876 77.211 102.868 77.211C102.093 77.211 101.395 77.3666 100.853 77.6777C100.31 77.9888 99.845 78.4555 99.5349 79.0777C99.2248 79.6999 99.0698 80.3999 99.0698 81.2555V86.8555H98.062V80.7888C98.062 79.6221 97.7519 78.6888 97.2093 78.0666C96.6667 77.4444 95.814 77.1332 94.8062 77.1332C94.031 77.1332 93.3333 77.2888 92.7907 77.5999C92.2481 77.911 91.783 78.3777 91.4729 78.9999C91.1628 79.6221 91.0078 80.3221 91.0078 81.1777V86.7777H89.9225V76.4332H90.8527V79.311L90.7752 78.9999C91.0853 78.1444 91.6279 77.5221 92.3256 77.0555C93.0233 76.5888 93.876 76.3555 94.9612 76.3555C95.969 76.3555 96.8992 76.5888 97.5969 77.1332C98.2946 77.6777 98.7597 78.4555 98.9147 79.4666L98.6047 79.311C98.9147 78.3777 99.3798 77.6777 100.155 77.1332C100.93 76.5888 101.86 76.3555 102.946 76.3555Z" fill="url(#paint7_linear_18_2386)"/>
<path d="M115.504 87.0111C114.419 87.0111 113.488 86.7778 112.713 86.3111C111.938 85.8445 111.24 85.2222 110.775 84.4445C110.31 83.6667 110.078 82.7333 110.078 81.7222C110.078 80.7111 110.31 79.7778 110.698 79C111.163 78.2222 111.705 77.6 112.481 77.1333C113.256 76.6667 114.109 76.4333 115.039 76.4333C115.969 76.4333 116.822 76.6667 117.597 77.1333C118.372 77.6 118.915 78.2222 119.38 79C119.845 79.7778 120 80.7111 120 81.7222C120 81.8 120 81.8 120 81.8778C120 81.9556 120 81.9556 120 82.0333H110.853V81.2556H119.535L119.147 81.6445C119.147 80.7889 118.992 80.0889 118.605 79.4667C118.217 78.8445 117.752 78.3 117.209 77.9111C116.589 77.5222 115.891 77.3667 115.116 77.3667C114.341 77.3667 113.643 77.5222 113.023 77.9111C112.403 78.3 111.938 78.7667 111.628 79.4667C111.318 80.0889 111.085 80.8667 111.085 81.7222V81.8778C111.085 82.7333 111.24 83.5111 111.628 84.1333C112.015 84.8333 112.558 85.3 113.178 85.6889C113.876 86.0778 114.574 86.2333 115.426 86.2333C116.124 86.2333 116.744 86.0778 117.287 85.8445C117.829 85.6111 118.372 85.2222 118.76 84.7556L119.302 85.4556C118.837 86 118.295 86.4667 117.597 86.7C116.977 86.8556 116.279 87.0111 115.504 87.0111Z" fill="url(#paint8_linear_18_2386)"/>
<path d="M29.3022 97.8997C29.4573 98.0553 29.8449 98.1331 30.155 98.1331C30.6201 98.1331 30.8526 97.8998 30.8526 97.5886C30.8526 97.2775 30.6976 97.122 30.2325 96.9664C29.6123 96.7331 29.3022 96.422 29.3022 96.0331C29.3022 95.4886 29.7674 95.022 30.465 95.022C30.7751 95.022 31.0852 95.0997 31.3178 95.2553L31.1627 95.722C31.0077 95.6442 30.7751 95.4886 30.465 95.4886C30.0774 95.4886 29.9224 95.722 29.9224 95.9553C29.9224 96.2664 30.155 96.3442 30.5426 96.4998C31.1627 96.7331 31.4728 97.0442 31.4728 97.5109C31.4728 98.1331 31.0077 98.522 30.2325 98.522C29.8449 98.522 29.5348 98.4442 29.3022 98.2886V97.8997Z" fill="url(#paint9_linear_18_2386)"/>
<path d="M34.9613 93.5444H35.5815V98.5222H34.9613V93.5444Z" fill="url(#paint10_linear_18_2386)"/>
<path d="M42.5583 96.8109C42.5583 98.0553 41.7056 98.5998 40.8529 98.5998C39.9227 98.5998 39.225 97.8997 39.225 96.8109C39.225 95.6442 40.0002 95.022 40.9304 95.022C41.8606 95.022 42.5583 95.722 42.5583 96.8109ZM39.8451 96.8109C39.8451 97.5886 40.3102 98.1331 40.8529 98.1331C41.473 98.1331 41.8606 97.5886 41.8606 96.8109C41.8606 96.2664 41.5506 95.4886 40.8529 95.4886C40.1552 95.4886 39.8451 96.1886 39.8451 96.8109Z" fill="url(#paint11_linear_18_2386)"/>
<path d="M49.0698 95.0998C49.0698 95.3331 49.0698 95.6442 49.0698 96.0331V98.0553C49.0698 98.8331 48.9147 99.2998 48.6047 99.6109C48.2946 99.922 47.8295 99.9998 47.3643 99.9998C46.9767 99.9998 46.5116 99.922 46.2016 99.6886L46.3566 99.222C46.5892 99.3775 46.8992 99.4553 47.3643 99.4553C47.9845 99.4553 48.4496 99.1442 48.4496 98.2886V97.8997C48.2946 98.2109 47.907 98.4442 47.3643 98.4442C46.5116 98.4442 45.8915 97.7442 45.8915 96.8109C45.8915 95.6442 46.6667 95.022 47.4419 95.022C48.062 95.022 48.3721 95.3331 48.5271 95.6442V95.0998H49.0698ZM48.4496 96.422C48.4496 96.3442 48.4496 96.1886 48.4496 96.1109C48.3721 95.722 48.062 95.4886 47.5969 95.4886C46.9768 95.4886 46.5892 95.9553 46.5892 96.8109C46.5892 97.5109 46.8992 98.0553 47.5969 98.0553C47.9845 98.0553 48.2946 97.822 48.4496 97.4331C48.4496 97.3553 48.5271 97.1997 48.5271 97.122V96.422H48.4496Z" fill="url(#paint12_linear_18_2386)"/>
<path d="M54.7289 98.522L54.6514 98.0553C54.4963 98.2886 54.1087 98.5998 53.6436 98.5998C52.9459 98.5998 52.6359 98.1331 52.6359 97.5886C52.6359 96.7331 53.3335 96.3442 54.6514 96.3442V96.2664C54.6514 95.9553 54.5738 95.4886 53.8762 95.4886C53.5661 95.4886 53.256 95.5664 53.0235 95.722L52.8684 95.3331C53.1785 95.1775 53.5661 95.022 53.9537 95.022C54.9614 95.022 55.2715 95.722 55.2715 96.422V97.6664C55.2715 97.9775 55.2715 98.2886 55.349 98.522H54.7289ZM54.6514 96.8109C53.9537 96.8109 53.1785 96.8886 53.1785 97.5886C53.1785 97.9775 53.4111 98.2109 53.7987 98.2109C54.2638 98.2109 54.4963 97.8998 54.6514 97.6664C54.6514 97.5886 54.6514 97.5109 54.6514 97.4331V96.8109Z" fill="url(#paint13_linear_18_2386)"/>
<path d="M59.0697 96.0331C59.0697 95.6442 59.0697 95.4109 59.0697 95.0998H59.6123V95.6442C59.7674 95.3331 60.155 95.022 60.7751 95.022C61.2402 95.022 62.0154 95.3331 62.0154 96.4998V98.522H61.3953V96.5775C61.3953 96.0331 61.1627 95.5664 60.6201 95.5664C60.2325 95.5664 59.9224 95.8775 59.7674 96.1886C59.7674 96.2664 59.6899 96.3442 59.6899 96.4998V98.522H59.0697V96.0331Z" fill="url(#paint14_linear_18_2386)"/>
<path d="M70.0775 93.5444H70.6977V95.6444C70.7752 95.4889 70.9302 95.3333 71.1628 95.1778C71.3178 95.1 71.5504 95.0222 71.7829 95.0222C72.2481 95.0222 72.9457 95.3333 72.9457 96.5V98.5222H72.3256V96.5778C72.3256 96.0333 72.093 95.5667 71.5504 95.5667C71.1628 95.5667 70.8527 95.8778 70.6977 96.1889C70.6977 96.2667 70.6202 96.3444 70.6202 96.5V98.6H70V93.5444H70.0775Z" fill="url(#paint15_linear_18_2386)"/>
<path d="M77.132 96.9668C77.132 97.8223 77.6746 98.1334 78.2948 98.1334C78.7599 98.1334 78.9925 98.0557 79.225 97.9779L79.3025 98.4445C79.07 98.5223 78.6824 98.6779 78.1398 98.6779C77.0545 98.6779 76.4343 97.9779 76.4343 96.9668C76.4343 95.9557 77.0545 95.1001 78.0622 95.1001C79.1475 95.1001 79.4576 96.1112 79.4576 96.7334C79.4576 96.889 79.4576 96.9668 79.4576 97.0445H77.132V96.9668ZM78.9925 96.5001C78.9925 96.1112 78.8374 95.489 78.1398 95.489C77.5196 95.489 77.2095 96.0334 77.2095 96.5001H78.9925Z" fill="url(#paint16_linear_18_2386)"/>
<path d="M83.101 96.1886C83.101 95.7998 83.101 95.4109 83.101 95.0998H83.6436V95.7998C83.7986 95.3331 84.1862 95.022 84.5738 95.022C84.6513 95.022 84.7289 95.022 84.7289 95.022V95.6442C84.6513 95.6442 84.5738 95.6442 84.4963 95.6442C84.0312 95.6442 83.7211 95.9553 83.6436 96.422C83.6436 96.4997 83.6436 96.5775 83.6436 96.7331V98.522H83.0234V96.1886H83.101Z" fill="url(#paint17_linear_18_2386)"/>
<path d="M88.527 96.9668C88.527 97.8223 89.0697 98.1334 89.6898 98.1334C90.1549 98.1334 90.3875 98.0557 90.62 97.9779L90.6976 98.4445C90.465 98.5223 90.0774 98.6779 89.5348 98.6779C88.4495 98.6779 87.8293 97.9779 87.8293 96.9668C87.8293 95.9557 88.4495 95.1001 89.4573 95.1001C90.5425 95.1001 90.8526 96.1112 90.8526 96.7334C90.8526 96.889 90.8526 96.9668 90.8526 97.0445H88.527V96.9668ZM90.31 96.5001C90.31 96.1112 90.1549 95.489 89.4573 95.489C88.8371 95.489 88.527 96.0334 88.527 96.5001H90.31Z" fill="url(#paint18_linear_18_2386)"/>
<path d="M62.2201 0.662993C65.874 1.40314 69.3042 2.80942 72.4361 4.73381C73.4055 3.91965 74.7477 3.47555 76.1646 3.77161C78.6253 4.2157 80.1913 6.51016 79.8184 8.95265C79.371 11.3951 77.0594 12.9495 74.5986 12.5794C72.1378 12.1353 70.5719 9.84083 70.9447 7.39834C71.0193 7.10228 71.0938 6.80622 71.1684 6.58418C63.9352 2.2173 54.9123 1.03307 46.7097 3.62359C36.5682 6.88024 28.813 15.466 26.7251 25.828C24.8608 35.1539 27.7691 45.0719 34.4057 51.9553C41.3407 59.1347 51.8549 62.3913 61.6235 60.393C61.549 59.8748 61.549 59.3567 61.6235 58.7646C62.0709 56.3221 64.3826 54.7678 66.8434 55.1379C69.3042 55.582 70.8701 57.8764 70.4973 60.3189C70.0499 62.7614 67.7382 64.3157 65.2774 63.9457C64.1589 63.7236 63.2641 63.1315 62.5929 62.3914C55.0614 64.0197 47.0825 62.9095 40.2967 59.1347C31.8704 54.4718 25.9794 46.1081 24.4134 36.7082C22.6238 25.754 26.7251 14.5778 35.1514 7.47235C42.5338 1.25511 52.6752 -1.33541 62.2201 0.662993ZM78.0288 32.0453C78.0288 19.0187 67.3654 8.43455 54.2412 8.43455C41.117 8.43455 30.4535 19.0187 30.4535 32.0453C30.4535 42.7774 37.2394 52.3994 46.6351 54.3237C48.4248 54.6938 51.4821 55.508 53.7938 55.434C57.6714 55.434 60.8033 52.3253 60.8033 48.4766C60.8033 48.4026 60.8033 48.4026 60.8033 48.3285C57.8951 49.3647 54.7632 49.7348 51.7058 49.2907C51.1838 51.2151 49.245 52.3993 47.3062 51.9553C45.2928 51.5112 43.9506 49.5128 44.398 47.5144C44.4726 47.2923 44.5472 46.9963 44.6217 46.7742C41.2661 44.7018 38.6562 41.6672 37.1648 38.0405C36.7919 38.0405 36.4191 38.0405 36.1208 37.9665C33.8837 37.5224 32.5415 35.3759 32.9889 33.1555C33.2872 31.6752 34.4803 30.491 35.8225 30.1209C36.27 22.4233 41.4898 15.54 49.1705 13.3195C57.5968 10.877 66.918 14.8738 70.8701 22.6454C74.8223 30.3429 72.5107 39.9649 65.7994 45.3679C65.6503 45.516 65.7994 45.59 65.1283 45.738V46.3301C65.1283 50.1049 67.8128 53.1395 71.3175 53.1395C74.8223 53.1395 77.5068 50.1049 77.5068 46.3301C77.4322 46.4782 78.0288 32.4154 78.0288 32.0453ZM71.0193 34.2657C72.5852 25.902 67.5145 17.3903 59.3119 14.7998C51.1093 12.2093 42.0864 16.2061 38.507 23.9777C37.6122 25.902 37.1648 27.9745 37.0157 30.0469C37.2394 30.0469 37.4631 30.0469 37.6868 30.1209C39.9239 30.565 41.2661 32.7114 40.8187 34.9319C40.5204 36.2641 39.551 37.3003 38.3579 37.8184C39.7747 41.0751 42.2355 43.8136 45.2929 45.664C46.1877 44.7758 47.4554 44.3317 48.7976 44.6278C50.5127 44.9979 51.6312 46.4042 51.7804 48.0325C53.0481 48.2545 54.3903 48.2545 55.7326 48.1805C57.4477 48.0325 59.0882 47.6624 60.5796 46.9963C59.9084 43.8876 57.0748 41.5192 53.7192 41.5192C53.7192 41.5192 49.9161 41.8152 48.723 41.5192C44.9946 40.557 43.0558 36.0421 43.0558 31.9713C43.0558 25.902 48.0519 20.9431 54.1666 20.9431C60.2813 20.9431 65.0537 25.902 65.0537 31.9713C65.0537 32.4153 64.9046 38.2625 64.9046 38.2625V44.1097C68.4093 41.6672 70.2736 38.1885 71.0193 34.2657ZM89.2888 0.0708724C86.6788 0.0708724 84.5909 2.14329 84.5909 4.73381C84.5909 7.32433 86.6788 9.39674 89.2888 9.39674C91.8987 9.39674 93.9866 7.32433 93.9866 4.73381C93.9866 2.14329 91.8987 0.0708724 89.2888 0.0708724ZM89.8107 13.3195V27.7524C91.8987 27.9745 93.5392 29.7508 93.5392 31.8972C93.5392 34.0437 91.8241 35.82 89.8107 36.0421V46.1821C91.8987 46.4041 93.5392 48.1805 93.5392 50.3269C93.5392 52.4734 91.8241 54.2497 89.8107 54.4718V63.7976C93.2409 63.5756 96 60.615 96 56.9883V20.0549C96 16.5022 93.2409 13.5416 89.8107 13.3195ZM88.4685 54.4718C87.0517 54.2497 84.74 52.4734 84.74 50.3269C84.74 48.1805 87.1262 46.4041 88.4685 46.1821V36.0421C87.0517 35.82 84.74 34.0437 84.74 31.8972C84.74 29.7508 87.1262 27.9745 88.4685 27.7524V13.3195C85.7094 13.5416 82.9504 16.5022 82.9504 20.1289V57.0623C82.9504 60.689 85.7094 63.6496 88.4685 63.8717V54.4718Z" fill="url(#paint19_linear_18_2386)"/>
<mask id="mask0_18_2386" style="mask-type:luminance" maskUnits="userSpaceOnUse" x="24" y="0" width="72" height="64">
<path d="M62.2201 0.662993C65.874 1.40314 69.3042 2.80942 72.4361 4.73381C73.4055 3.91965 74.7477 3.47555 76.1646 3.77161C78.6253 4.2157 80.1913 6.51016 79.8184 8.95265C79.371 11.3951 77.0594 12.9495 74.5986 12.5794C72.1378 12.1353 70.5719 9.84083 70.9447 7.39834C71.0193 7.10228 71.0938 6.80622 71.1684 6.51016C63.9352 2.14329 54.9123 0.959051 46.7097 3.54957C36.5682 6.80622 28.813 15.3919 26.7251 25.754C24.8608 35.0799 27.7691 44.9979 34.4057 51.8812C41.3407 59.0607 51.8549 62.3173 61.6235 60.3189C61.549 59.8008 61.549 59.2827 61.6235 58.6906C62.0709 56.2481 64.3826 54.6938 66.8434 55.0639C69.3042 55.508 70.8701 57.8024 70.4973 60.2449C70.0499 62.6874 67.7382 64.2417 65.2774 63.8717C64.1589 63.6496 63.2641 63.0575 62.5929 62.3173C55.0614 63.9457 47.0825 62.8354 40.2967 59.0607C31.8704 54.3978 25.9794 46.0341 24.4134 36.6342C22.6238 25.754 26.7251 14.5778 35.1514 7.47235C42.5338 1.25511 52.6752 -1.33541 62.2201 0.662993ZM78.0288 32.0453C78.0288 19.0187 67.3654 8.43455 54.2412 8.43455C41.117 8.43455 30.4535 19.0187 30.4535 32.0453C30.4535 42.7774 37.2394 52.3994 46.6351 54.3237C48.4248 54.6938 51.4821 55.508 53.7938 55.434C57.6714 55.434 60.8033 52.3253 60.8033 48.4766C60.8033 48.4026 60.8033 48.4026 60.8033 48.3285C57.8951 49.3647 54.7632 49.7348 51.7058 49.2907C51.1838 51.2151 49.245 52.3993 47.3062 51.9553C45.2928 51.5112 43.9506 49.5128 44.398 47.5144C44.4726 47.2923 44.5472 46.9963 44.6217 46.7742C41.2661 44.7018 38.6562 41.6672 37.1648 38.0405C36.7919 38.0405 36.4191 38.0405 36.1208 37.9665C33.8837 37.5224 32.5415 35.3759 32.9889 33.1555C33.2872 31.6752 34.4803 30.491 35.8225 30.1209C36.27 22.4233 41.4898 15.54 49.1705 13.3195C57.5968 10.877 66.918 14.8738 70.8701 22.6454C74.8223 30.3429 72.5107 39.9649 65.7994 45.3679C65.6503 45.516 65.7994 45.59 65.1283 45.738V46.3301C65.1283 50.1049 67.8128 53.1395 71.3175 53.1395C74.8223 53.1395 77.5068 50.1049 77.5068 46.3301V33.8216C77.5068 33.5996 77.8051 33.3035 77.8051 33.0815C77.7305 32.7114 78.0288 32.4154 78.0288 32.0453ZM71.0193 34.2657C72.5852 25.902 67.5145 17.3903 59.3119 14.7998C51.1093 12.2093 42.0864 16.2061 38.507 23.9777C37.6122 25.902 37.1648 27.9745 37.0157 30.0469C37.2394 30.0469 37.4631 30.0469 37.6868 30.1209C39.9239 30.565 41.2661 32.7114 40.8187 34.9319C40.5204 36.2641 39.551 37.3003 38.3579 37.8184C39.7747 41.0751 42.2355 43.8136 45.2929 45.664C46.1877 44.7758 47.4554 44.3317 48.7976 44.6278C50.5127 44.9979 51.6312 46.4042 51.7804 48.0325C53.0481 48.2545 54.3903 48.2545 55.7326 48.1805C57.4477 48.0325 59.0882 47.6624 60.5796 46.9963C59.9084 43.8876 57.0748 41.5192 53.7192 41.5192C53.7192 41.5192 49.9161 41.8152 48.723 41.5192C44.9946 40.557 43.0558 36.0421 43.0558 31.9713C43.0558 25.902 48.0519 20.9431 54.1666 20.9431C60.2813 20.9431 65.0537 25.902 65.0537 31.9713C65.0537 32.4153 64.9046 38.2625 64.9046 38.2625V44.1097C68.4093 41.6672 70.2736 38.1885 71.0193 34.2657ZM89.2888 0.0708724C86.6788 0.0708724 84.5909 2.14329 84.5909 4.73381C84.5909 7.32433 86.6788 9.39674 89.2888 9.39674C91.8987 9.39674 93.9866 7.32433 93.9866 4.73381C93.9866 2.14329 91.8987 0.0708724 89.2888 0.0708724ZM89.8107 13.3195V27.7524C91.8987 27.9745 93.5392 29.7508 93.5392 31.8972C93.5392 34.0437 91.8241 35.82 89.8107 36.0421V46.1821C91.8987 46.4041 93.5392 48.1805 93.5392 50.3269C93.5392 52.4734 91.8241 54.2497 89.8107 54.4718V63.7976C93.2409 63.5756 96 60.615 96 56.9883V20.0549C96 16.5022 93.2409 13.5416 89.8107 13.3195ZM88.4685 54.4718C87.0517 54.2497 84.74 52.4734 84.74 50.3269C84.74 48.1805 87.1262 46.4041 88.4685 46.1821V36.0421C87.0517 35.82 84.74 34.0437 84.74 31.8972C84.74 29.7508 87.1262 27.9745 88.4685 27.7524V13.3195C85.7094 13.5416 82.9504 16.5022 82.9504 20.1289V57.0623C82.9504 60.689 85.7094 63.6496 88.4685 63.8717V54.4718Z" fill="white"/>
</mask>
<g mask="url(#mask0_18_2386)">
<path d="M113.375 25.902C112.629 1.10699 91.7496 -18.4329 66.7688 -17.6188C41.7881 -16.8786 22.1018 3.84553 22.9221 28.6405C23.6678 53.4355 44.5472 72.9754 69.5279 72.1612C94.5086 71.4951 114.12 50.7709 113.375 25.902ZM93.6884 26.5681C94.1358 40.5569 83.025 52.2512 68.9314 52.6953C54.8377 53.1394 43.0558 42.1112 42.6084 28.1224C42.161 14.0596 53.2718 2.36524 67.3654 1.92115C81.459 1.55107 93.241 12.5053 93.6884 26.5681Z" fill="url(#paint20_linear_18_2386)"/>
<path opacity="0.4" d="M107.409 12.2094C106.738 -10.3651 87.7231 -28.0547 65.0541 -27.3885C42.3104 -26.6484 24.4883 -7.84861 25.1595 14.6519C25.8306 37.2264 44.8458 54.916 67.5148 54.2498C90.2585 53.5837 108.081 34.7099 107.409 12.2094ZM89.5128 12.7275C89.8856 25.4581 79.8188 36.0422 66.9929 36.4863C54.1669 36.8563 43.5035 26.8643 43.0561 14.1338C42.6833 1.40324 52.7501 -9.18088 65.576 -9.62497C78.402 -9.99504 89.1399 -0.00304222 89.5128 12.7275Z" fill="url(#paint21_linear_18_2386)"/>
<path d="M109.572 44.6278C108.677 16.1321 84.6656 -6.29439 55.9564 -5.48022C27.2472 -4.59205 4.65268 19.2407 5.47294 47.8104C6.36777 76.3061 30.3791 98.7326 59.0883 97.9185C87.8721 97.0303 110.467 73.1975 109.572 44.6278ZM86.9027 45.368C87.4247 61.5032 74.6733 74.8999 58.4172 75.418C42.1611 75.9361 28.664 63.2795 28.142 47.1443C27.62 31.0091 40.3714 17.6124 56.6275 17.0943C72.8836 16.5762 86.4552 29.2327 86.9027 45.368Z" fill="url(#paint22_linear_18_2386)"/>
</g>
<defs>
<linearGradient id="paint0_linear_18_2386" x1="2.8796e-08" y1="79.4166" x2="12.6357" y2="79.4166" gradientUnits="userSpaceOnUse">
<stop stop-color="#8A35F2"/>
<stop offset="1" stop-color="#BC4BDF"/>
</linearGradient>
<linearGradient id="paint1_linear_18_2386" x1="14.0311" y1="81.2767" x2="21.9381" y2="81.2767" gradientUnits="userSpaceOnUse">
<stop stop-color="#8A35F2"/>
<stop offset="1" stop-color="#BC4BDF"/>
</linearGradient>
<linearGradient id="paint2_linear_18_2386" x1="21.9381" y1="81.3149" x2="33.3335" y2="81.3149" gradientUnits="userSpaceOnUse">
<stop stop-color="#8A35F2"/>
<stop offset="1" stop-color="#BC4BDF"/>
</linearGradient>
<linearGradient id="paint3_linear_18_2386" x1="35.349" y1="81.2767" x2="47.442" y2="81.2767" gradientUnits="userSpaceOnUse">
<stop stop-color="#8A35F2"/>
<stop offset="1" stop-color="#BC4BDF"/>
</linearGradient>
<linearGradient id="paint4_linear_18_2386" x1="49.0699" y1="79.4166" x2="61.6281" y2="79.4166" gradientUnits="userSpaceOnUse">
<stop stop-color="#8A35F2"/>
<stop offset="1" stop-color="#BC4BDF"/>
</linearGradient>
<linearGradient id="paint5_linear_18_2386" x1="64.8839" y1="81.5547" x2="74.1862" y2="81.5547" gradientUnits="userSpaceOnUse">
<stop stop-color="#8A35F2"/>
<stop offset="1" stop-color="#BC4BDF"/>
</linearGradient>
<linearGradient id="paint6_linear_18_2386" x1="77.2869" y1="81.5535" x2="85.7365" y2="81.5535" gradientUnits="userSpaceOnUse">
<stop stop-color="#8A35F2"/>
<stop offset="1" stop-color="#BC4BDF"/>
</linearGradient>
<linearGradient id="paint7_linear_18_2386" x1="89.9225" y1="81.5547" x2="107.132" y2="81.5547" gradientUnits="userSpaceOnUse">
<stop stop-color="#8A35F2"/>
<stop offset="1" stop-color="#BC4BDF"/>
</linearGradient>
<linearGradient id="paint8_linear_18_2386" x1="110.078" y1="81.6326" x2="120" y2="81.6326" gradientUnits="userSpaceOnUse">
<stop stop-color="#8A35F2"/>
<stop offset="1" stop-color="#BC4BDF"/>
</linearGradient>
<linearGradient id="paint9_linear_18_2386" x1="29.3022" y1="96.7423" x2="31.4728" y2="96.7423" gradientUnits="userSpaceOnUse">
<stop stop-color="#8A35F2"/>
<stop offset="1" stop-color="#BC4BDF"/>
</linearGradient>
<linearGradient id="paint10_linear_18_2386" x1="34.9613" y1="95.9911" x2="35.5815" y2="95.9911" gradientUnits="userSpaceOnUse">
<stop stop-color="#8A35F2"/>
<stop offset="1" stop-color="#BC4BDF"/>
</linearGradient>
<linearGradient id="paint11_linear_18_2386" x1="39.225" y1="96.7805" x2="42.5583" y2="96.7805" gradientUnits="userSpaceOnUse">
<stop stop-color="#8A35F2"/>
<stop offset="1" stop-color="#BC4BDF"/>
</linearGradient>
<linearGradient id="paint12_linear_18_2386" x1="45.8915" y1="97.4687" x2="49.0698" y2="97.4687" gradientUnits="userSpaceOnUse">
<stop stop-color="#8A35F2"/>
<stop offset="1" stop-color="#BC4BDF"/>
</linearGradient>
<linearGradient id="paint13_linear_18_2386" x1="52.6359" y1="96.7805" x2="55.349" y2="96.7805" gradientUnits="userSpaceOnUse">
<stop stop-color="#8A35F2"/>
<stop offset="1" stop-color="#BC4BDF"/>
</linearGradient>
<linearGradient id="paint14_linear_18_2386" x1="59.0697" y1="96.7423" x2="62.0154" y2="96.7423" gradientUnits="userSpaceOnUse">
<stop stop-color="#8A35F2"/>
<stop offset="1" stop-color="#BC4BDF"/>
</linearGradient>
<linearGradient id="paint15_linear_18_2386" x1="70" y1="96.0294" x2="72.9457" y2="96.0294" gradientUnits="userSpaceOnUse">
<stop stop-color="#8A35F2"/>
<stop offset="1" stop-color="#BC4BDF"/>
</linearGradient>
<linearGradient id="paint16_linear_18_2386" x1="76.4343" y1="96.8587" x2="79.4576" y2="96.8587" gradientUnits="userSpaceOnUse">
<stop stop-color="#8A35F2"/>
<stop offset="1" stop-color="#BC4BDF"/>
</linearGradient>
<linearGradient id="paint17_linear_18_2386" x1="83.0234" y1="96.7423" x2="84.7289" y2="96.7423" gradientUnits="userSpaceOnUse">
<stop stop-color="#8A35F2"/>
<stop offset="1" stop-color="#BC4BDF"/>
</linearGradient>
<linearGradient id="paint18_linear_18_2386" x1="87.8293" y1="96.8587" x2="90.8526" y2="96.8587" gradientUnits="userSpaceOnUse">
<stop stop-color="#8A35F2"/>
<stop offset="1" stop-color="#BC4BDF"/>
</linearGradient>
<linearGradient id="paint19_linear_18_2386" x1="24" y1="31.4576" x2="96" y2="31.4576" gradientUnits="userSpaceOnUse">
<stop stop-color="#8A35F2"/>
<stop offset="1" stop-color="#BC4BDF"/>
</linearGradient>
<linearGradient id="paint20_linear_18_2386" x1="22.8973" y1="26.5099" x2="113.395" y2="26.5099" gradientUnits="userSpaceOnUse">
<stop stop-color="#8A35F2"/>
<stop offset="1" stop-color="#BC4BDF"/>
</linearGradient>
<linearGradient id="paint21_linear_18_2386" x1="25.1411" y1="12.7385" x2="107.428" y2="12.7385" gradientUnits="userSpaceOnUse">
<stop stop-color="#8A35F2"/>
<stop offset="1" stop-color="#BC4BDF"/>
</linearGradient>
<linearGradient id="paint22_linear_18_2386" x1="5.45129" y1="45.3425" x2="109.597" y2="45.3425" gradientUnits="userSpaceOnUse">
<stop stop-color="#8A35F2"/>
<stop offset="1" stop-color="#BC4BDF"/>
</linearGradient>
</defs>
</svg>
