<svg width="120" height="100" viewBox="0 0 120 100" fill="none" xmlns="http://www.w3.org/2000/svg">
<g opacity="0.2">
<path d="M0 86.9333V72H4.49612V77.3667L4.26357 81.4111V85.4556V86.9333H0ZM7.28682 87.0889C6.27907 87.0889 5.50388 86.8556 4.88372 86.4667C4.26357 86.0778 3.79845 85.4556 3.56589 84.6C3.25581 83.7444 3.17829 82.6556 3.17829 81.3333C3.17829 80.0111 3.33333 79 3.64341 78.1444C3.95349 77.2889 4.4186 76.6667 5.03876 76.2778C5.65891 75.8889 6.43411 75.6556 7.36434 75.6556C8.29457 75.6556 9.2248 75.8889 10 76.3556C10.7752 76.8222 11.4729 77.4444 11.938 78.3C12.4031 79.1556 12.6357 80.1667 12.6357 81.3333C12.6357 82.5 12.4031 83.5111 11.938 84.3667C11.4729 85.2222 10.8527 85.8444 10 86.3111C9.14729 86.7778 8.29457 87.0889 7.28682 87.0889ZM6.20155 83.5889C6.51163 83.5889 6.8217 83.5111 7.13178 83.3556C7.36434 83.2 7.5969 82.9667 7.75194 82.6556C7.90698 82.3444 7.9845 81.9556 7.9845 81.4889C7.9845 81.0222 7.90698 80.6333 7.75194 80.3222C7.5969 80.0111 7.36434 79.7778 7.13178 79.6222C6.8217 79.3111 6.58915 79.2333 6.20155 79.2333C5.81395 79.2333 5.5814 79.3111 5.34884 79.4667C5.03876 79.6222 4.8062 79.8556 4.65116 80.1667C4.49612 80.4778 4.4186 80.8667 4.4186 81.3333C4.4186 81.8 4.49612 82.1889 4.65116 82.5C4.8062 82.8111 5.03876 83.0444 5.27132 83.2C5.5814 83.5111 5.89147 83.5889 6.20155 83.5889Z" fill="white"/>
<path d="M14.0311 86.9334V75.889H18.3722V79.2334L17.6745 78.3001C17.9846 77.4445 18.5273 76.8223 19.3024 76.3556C20.0001 75.889 20.9304 75.7334 21.9381 75.7334V79.7778C21.7055 79.7778 21.5505 79.7001 21.3955 79.7001C21.2404 79.7001 21.0854 79.7001 20.9304 79.7001C20.2327 79.7001 19.69 79.8556 19.2249 80.2445C18.7598 80.6334 18.6048 81.1778 18.6048 82.1112V87.0112H14.0311V86.9334Z" fill="white"/>
<path d="M26.0466 87.089C25.1164 87.089 24.4187 86.9334 23.7986 86.6223C23.1784 86.3112 22.7133 85.9223 22.4032 85.3778C22.0931 84.8334 21.9381 84.289 21.9381 83.6667C21.9381 82.9667 22.0931 82.3445 22.4807 81.8778C22.8683 81.4112 23.411 81.0223 24.1087 80.789C24.8838 80.5556 25.8141 80.4001 26.8994 80.4001H29.1474V82.5778H27.597C27.1319 82.5778 26.7443 82.6556 26.5118 82.8112C26.2792 82.9667 26.2017 83.2001 26.2017 83.5112C26.2017 83.7445 26.2792 83.9778 26.5118 84.1334C26.6668 84.289 26.9769 84.3667 27.2869 84.3667C27.597 84.3667 27.9071 84.289 28.1397 84.1334C28.3722 83.9778 28.6048 83.6667 28.6823 83.3556L29.2249 84.6778C29.0699 85.5334 28.6823 86.0778 28.1397 86.4667C27.7521 86.9334 26.9769 87.089 26.0466 87.089ZM29.1474 86.9334V84.989L28.8373 84.4445V80.7112C28.8373 80.1667 28.6823 79.7778 28.3722 79.4667C28.0621 79.1556 27.5195 79.0778 26.7443 79.0778C26.2792 79.0778 25.7366 79.1556 25.2714 79.3112C24.7288 79.4667 24.3412 79.7001 23.9536 79.9334L22.4807 76.9778C23.1009 76.589 23.8761 76.2778 24.8063 76.0445C25.7366 75.8112 26.5893 75.7334 27.442 75.7334C29.3025 75.7334 30.7753 76.1223 31.7831 76.9778C32.7908 77.8334 33.3335 79.1556 33.3335 81.0223V86.9334H29.1474Z" fill="white"/>
<path d="M42.9459 75.7334C43.7986 75.7334 44.5738 75.889 45.194 76.2778C45.8916 76.589 46.4343 77.1334 46.8219 77.9112C47.2095 78.6112 47.442 79.5445 47.442 80.7112V87.0112H42.9459V81.5667C42.9459 80.8667 42.7909 80.4001 42.5583 80.089C42.3257 79.7778 42.0157 79.6223 41.5505 79.6223C41.2405 79.6223 40.9304 79.7001 40.6978 79.8556C40.4653 80.0112 40.2327 80.2445 40.0777 80.5556C39.9226 80.8667 39.8451 81.3334 39.8451 81.8778V87.0112H35.349V75.889H39.6901V79.0778L38.7599 78.2223C39.225 77.3667 39.7676 76.7445 40.4653 76.3556C41.2405 75.889 42.0157 75.7334 42.9459 75.7334Z" fill="white"/>
<path d="M54.3413 87.0889C53.411 87.0889 52.4808 86.8556 51.7056 86.3889C50.9304 85.9222 50.2327 85.3 49.7676 84.4444C49.3025 83.5889 49.0699 82.5778 49.0699 81.4111C49.0699 80.2444 49.3025 79.2333 49.7676 78.3778C50.2327 77.5222 50.8529 76.9 51.7056 76.4333C52.4808 75.9667 53.411 75.7333 54.3413 75.7333C55.2715 75.7333 56.1242 75.9667 56.6668 76.3556C57.3645 76.7444 57.8296 77.3667 58.0622 78.2222C58.3723 79.0778 58.5273 80.0889 58.5273 81.4111C58.5273 82.7333 58.3723 83.8222 58.1397 84.6778C57.8296 85.5333 57.442 86.1556 56.8219 86.5444C56.2017 86.9333 55.349 87.0889 54.3413 87.0889ZM55.4265 83.5889C55.7366 83.5889 56.0467 83.5111 56.3568 83.3556C56.5893 83.2 56.8219 82.9667 56.9769 82.6556C57.132 82.3444 57.2095 81.9556 57.2095 81.4889C57.2095 81.0222 57.132 80.6333 56.9769 80.3222C56.8219 80.0111 56.5893 79.7778 56.3568 79.6222C56.1242 79.4667 55.8141 79.3889 55.4265 79.3889C55.0389 79.3889 54.8064 79.4667 54.4963 79.6222C54.2637 79.7778 54.0312 80.0111 53.8761 80.3222C53.7211 80.6333 53.6436 81.0222 53.6436 81.4889C53.6436 81.9556 53.7211 82.3444 53.8761 82.6556C54.0312 82.9667 54.2637 83.2 54.4963 83.3556C54.8064 83.5111 55.1165 83.5889 55.4265 83.5889ZM57.3645 86.9333V85.4556V81.4111L57.132 77.3667V72H61.6281V86.9333H57.3645Z" fill="white"/>
<path d="M69.9227 76.3555C70.7754 76.3555 71.5506 76.511 72.1707 76.8221C72.7909 77.1332 73.3335 77.6777 73.6436 78.2999C74.0312 78.9999 74.1862 79.7777 74.1862 80.7888V86.9332H73.1785V80.8666C73.1785 79.6999 72.8684 78.7666 72.3258 78.1444C71.7056 77.5221 70.9304 77.211 69.8452 77.211C68.9924 77.211 68.2948 77.3666 67.7521 77.6777C67.132 77.9888 66.6669 78.4555 66.3568 79.0777C66.0467 79.6999 65.8917 80.3999 65.8917 81.2555V86.8555H64.8839V76.4332H65.8141V79.311L65.6591 78.9999C65.9692 78.1444 66.5118 77.5221 67.2095 77.0555C67.9072 76.5888 68.8374 76.3555 69.9227 76.3555Z" fill="white"/>
<path d="M81.0853 87.0112C80.3101 87.0112 79.6124 86.8556 79.0698 86.6223C78.5272 86.3889 78.0621 86.0001 77.752 85.5334C77.4419 85.0667 77.2869 84.5223 77.2869 83.9778C77.2869 83.4334 77.4419 82.9667 77.6745 82.5001C77.907 82.0334 78.2946 81.7223 78.9148 81.4112C79.4574 81.1001 80.2326 81.0223 81.2404 81.0223H85.1163V81.8001H81.3179C80.2326 81.8001 79.4574 82.0334 79.0698 82.4223C78.6047 82.8112 78.4497 83.3556 78.4497 83.9001C78.4497 84.6001 78.6822 85.0667 79.2248 85.5334C79.7675 85.9223 80.4652 86.1556 81.3954 86.1556C82.2481 86.1556 83.0233 85.9223 83.6435 85.5334C84.2636 85.1445 84.7287 84.5223 84.9613 83.8223L85.2714 84.5223C84.9613 85.3001 84.4962 85.9223 83.876 86.3112C83.0233 86.7778 82.0931 87.0112 81.0853 87.0112ZM84.8838 86.9334V84.5223L84.8062 84.1334V80.1667C84.8062 79.1556 84.5737 78.4556 84.0311 77.9112C83.4884 77.3667 82.7132 77.1334 81.7055 77.1334C81.0078 77.1334 80.3101 77.2889 79.69 77.5223C79.0698 77.7556 78.5272 78.0667 78.0621 78.4556L77.5969 77.7556C78.1396 77.2889 78.7597 76.9001 79.4574 76.6667C80.1551 76.4334 80.9303 76.2778 81.783 76.2778C83.1008 76.2778 84.1086 76.5889 84.7287 77.2889C85.3489 77.9889 85.7365 78.9223 85.7365 80.2445V86.8556H84.8838V86.9334Z" fill="white"/>
<path d="M102.946 76.3555C103.798 76.3555 104.496 76.511 105.116 76.8221C105.736 77.1332 106.202 77.6777 106.589 78.2999C106.899 78.9999 107.132 79.7777 107.132 80.7888V86.9332H106.124V80.8666C106.124 79.6999 105.814 78.7666 105.271 78.1444C104.729 77.5221 103.876 77.211 102.868 77.211C102.093 77.211 101.395 77.3666 100.853 77.6777C100.31 77.9888 99.845 78.4555 99.5349 79.0777C99.2248 79.6999 99.0698 80.3999 99.0698 81.2555V86.8555H98.062V80.7888C98.062 79.6221 97.7519 78.6888 97.2093 78.0666C96.6667 77.4444 95.814 77.1332 94.8062 77.1332C94.031 77.1332 93.3333 77.2888 92.7907 77.5999C92.2481 77.911 91.783 78.3777 91.4729 78.9999C91.1628 79.6221 91.0078 80.3221 91.0078 81.1777V86.7777H89.9225V76.4332H90.8527V79.311L90.7752 78.9999C91.0853 78.1444 91.6279 77.5221 92.3256 77.0555C93.0233 76.5888 93.876 76.3555 94.9612 76.3555C95.969 76.3555 96.8992 76.5888 97.5969 77.1332C98.2946 77.6777 98.7597 78.4555 98.9147 79.4666L98.6047 79.311C98.9147 78.3777 99.3798 77.6777 100.155 77.1332C100.93 76.5888 101.86 76.3555 102.946 76.3555Z" fill="white"/>
<path d="M115.504 87.0111C114.419 87.0111 113.488 86.7778 112.713 86.3111C111.938 85.8445 111.24 85.2222 110.775 84.4445C110.31 83.6667 110.078 82.7333 110.078 81.7222C110.078 80.7111 110.31 79.7778 110.698 79C111.163 78.2222 111.705 77.6 112.481 77.1333C113.256 76.6667 114.109 76.4333 115.039 76.4333C115.969 76.4333 116.822 76.6667 117.597 77.1333C118.372 77.6 118.915 78.2222 119.38 79C119.845 79.7778 120 80.7111 120 81.7222C120 81.8 120 81.8 120 81.8778C120 81.9556 120 81.9556 120 82.0333H110.853V81.2556H119.535L119.147 81.6445C119.147 80.7889 118.992 80.0889 118.605 79.4667C118.217 78.8445 117.752 78.3 117.209 77.9111C116.589 77.5222 115.891 77.3667 115.116 77.3667C114.341 77.3667 113.643 77.5222 113.023 77.9111C112.403 78.3 111.938 78.7667 111.628 79.4667C111.318 80.0889 111.085 80.8667 111.085 81.7222V81.8778C111.085 82.7333 111.24 83.5111 111.628 84.1333C112.015 84.8333 112.558 85.3 113.178 85.6889C113.876 86.0778 114.574 86.2333 115.426 86.2333C116.124 86.2333 116.744 86.0778 117.287 85.8445C117.829 85.6111 118.372 85.2222 118.76 84.7556L119.302 85.4556C118.837 86 118.295 86.4667 117.597 86.7C116.977 86.8556 116.279 87.0111 115.504 87.0111Z" fill="white"/>
<path d="M29.3022 97.8997C29.4573 98.0553 29.8449 98.1331 30.155 98.1331C30.6201 98.1331 30.8526 97.8998 30.8526 97.5886C30.8526 97.2775 30.6976 97.122 30.2325 96.9664C29.6123 96.7331 29.3022 96.422 29.3022 96.0331C29.3022 95.4886 29.7674 95.022 30.465 95.022C30.7751 95.022 31.0852 95.0997 31.3178 95.2553L31.1627 95.722C31.0077 95.6442 30.7751 95.4886 30.465 95.4886C30.0774 95.4886 29.9224 95.722 29.9224 95.9553C29.9224 96.2664 30.155 96.3442 30.5426 96.4998C31.1627 96.7331 31.4728 97.0442 31.4728 97.5109C31.4728 98.1331 31.0077 98.522 30.2325 98.522C29.8449 98.522 29.5348 98.4442 29.3022 98.2886V97.8997Z" fill="white"/>
<path d="M34.9613 93.5444H35.5815V98.5222H34.9613V93.5444Z" fill="white"/>
<path d="M42.5583 96.8109C42.5583 98.0553 41.7056 98.5998 40.8529 98.5998C39.9227 98.5998 39.225 97.8997 39.225 96.8109C39.225 95.6442 40.0002 95.022 40.9304 95.022C41.8606 95.022 42.5583 95.722 42.5583 96.8109ZM39.8451 96.8109C39.8451 97.5886 40.3102 98.1331 40.8529 98.1331C41.473 98.1331 41.8606 97.5886 41.8606 96.8109C41.8606 96.2664 41.5506 95.4886 40.8529 95.4886C40.1552 95.4886 39.8451 96.1886 39.8451 96.8109Z" fill="white"/>
<path d="M49.0698 95.0998C49.0698 95.3331 49.0698 95.6442 49.0698 96.0331V98.0553C49.0698 98.8331 48.9147 99.2998 48.6047 99.6109C48.2946 99.922 47.8295 99.9998 47.3643 99.9998C46.9767 99.9998 46.5116 99.922 46.2016 99.6886L46.3566 99.222C46.5892 99.3775 46.8992 99.4553 47.3643 99.4553C47.9845 99.4553 48.4496 99.1442 48.4496 98.2886V97.8997C48.2946 98.2109 47.907 98.4442 47.3643 98.4442C46.5116 98.4442 45.8915 97.7442 45.8915 96.8109C45.8915 95.6442 46.6667 95.022 47.4419 95.022C48.062 95.022 48.3721 95.3331 48.5271 95.6442V95.0998H49.0698ZM48.4496 96.422C48.4496 96.3442 48.4496 96.1886 48.4496 96.1109C48.3721 95.722 48.062 95.4886 47.5969 95.4886C46.9768 95.4886 46.5892 95.9553 46.5892 96.8109C46.5892 97.5109 46.8992 98.0553 47.5969 98.0553C47.9845 98.0553 48.2946 97.822 48.4496 97.4331C48.4496 97.3553 48.5271 97.1997 48.5271 97.122V96.422H48.4496Z" fill="white"/>
<path d="M54.7289 98.522L54.6514 98.0553C54.4963 98.2886 54.1087 98.5998 53.6436 98.5998C52.9459 98.5998 52.6359 98.1331 52.6359 97.5886C52.6359 96.7331 53.3335 96.3442 54.6514 96.3442V96.2664C54.6514 95.9553 54.5738 95.4886 53.8762 95.4886C53.5661 95.4886 53.256 95.5664 53.0235 95.722L52.8684 95.3331C53.1785 95.1775 53.5661 95.022 53.9537 95.022C54.9614 95.022 55.2715 95.722 55.2715 96.422V97.6664C55.2715 97.9775 55.2715 98.2886 55.349 98.522H54.7289ZM54.6514 96.8109C53.9537 96.8109 53.1785 96.8886 53.1785 97.5886C53.1785 97.9775 53.4111 98.2109 53.7987 98.2109C54.2638 98.2109 54.4963 97.8998 54.6514 97.6664C54.6514 97.5886 54.6514 97.5109 54.6514 97.4331V96.8109Z" fill="white"/>
<path d="M59.0697 96.0331C59.0697 95.6442 59.0697 95.4109 59.0697 95.0998H59.6123V95.6442C59.7674 95.3331 60.155 95.022 60.7751 95.022C61.2402 95.022 62.0154 95.3331 62.0154 96.4998V98.522H61.3953V96.5775C61.3953 96.0331 61.1627 95.5664 60.6201 95.5664C60.2325 95.5664 59.9224 95.8775 59.7674 96.1886C59.7674 96.2664 59.6899 96.3442 59.6899 96.4998V98.522H59.0697V96.0331Z" fill="white"/>
<path d="M70.0775 93.5444H70.6977V95.6444C70.7752 95.4889 70.9302 95.3333 71.1628 95.1778C71.3178 95.1 71.5504 95.0222 71.7829 95.0222C72.2481 95.0222 72.9457 95.3333 72.9457 96.5V98.5222H72.3256V96.5778C72.3256 96.0333 72.093 95.5667 71.5504 95.5667C71.1628 95.5667 70.8527 95.8778 70.6977 96.1889C70.6977 96.2667 70.6202 96.3444 70.6202 96.5V98.6H70V93.5444H70.0775Z" fill="white"/>
<path d="M77.132 96.9668C77.132 97.8223 77.6746 98.1334 78.2948 98.1334C78.7599 98.1334 78.9925 98.0557 79.225 97.9779L79.3025 98.4445C79.07 98.5223 78.6824 98.6779 78.1398 98.6779C77.0545 98.6779 76.4343 97.9779 76.4343 96.9668C76.4343 95.9557 77.0545 95.1001 78.0622 95.1001C79.1475 95.1001 79.4576 96.1112 79.4576 96.7334C79.4576 96.889 79.4576 96.9668 79.4576 97.0445H77.132V96.9668ZM78.9925 96.5001C78.9925 96.1112 78.8374 95.489 78.1398 95.489C77.5196 95.489 77.2095 96.0334 77.2095 96.5001H78.9925Z" fill="white"/>
<path d="M83.101 96.1886C83.101 95.7998 83.101 95.4109 83.101 95.0998H83.6436V95.7998C83.7986 95.3331 84.1862 95.022 84.5738 95.022C84.6513 95.022 84.7289 95.022 84.7289 95.022V95.6442C84.6513 95.6442 84.5738 95.6442 84.4963 95.6442C84.0312 95.6442 83.7211 95.9553 83.6436 96.422C83.6436 96.4997 83.6436 96.5775 83.6436 96.7331V98.522H83.0234V96.1886H83.101Z" fill="white"/>
<path d="M88.527 96.9668C88.527 97.8223 89.0697 98.1334 89.6898 98.1334C90.1549 98.1334 90.3875 98.0557 90.62 97.9779L90.6976 98.4445C90.465 98.5223 90.0774 98.6779 89.5348 98.6779C88.4495 98.6779 87.8293 97.9779 87.8293 96.9668C87.8293 95.9557 88.4495 95.1001 89.4573 95.1001C90.5425 95.1001 90.8526 96.1112 90.8526 96.7334C90.8526 96.889 90.8526 96.9668 90.8526 97.0445H88.527V96.9668ZM90.31 96.5001C90.31 96.1112 90.1549 95.489 89.4573 95.489C88.8371 95.489 88.527 96.0334 88.527 96.5001H90.31Z" fill="white"/>
<path d="M74.3686 35.2036L85.1483 13.6783C86.005 14.0382 86.933 14.2542 87.8611 14.2542C91.6447 14.2542 94.6431 11.1586 94.6431 7.41507C94.6431 3.59955 91.5733 0.575928 87.8611 0.575928C84.0775 0.575928 81.0791 3.67154 81.0791 7.41507C81.0791 10.0067 82.5069 12.2385 84.5772 13.3903L73.726 34.9876C73.5119 34.9156 73.3691 34.9156 73.1549 34.9156C71.6558 34.9156 70.4422 36.1395 70.4422 37.6513C70.4422 38.4432 70.7991 39.2351 71.3702 39.739L63.9457 54.5692C63.7316 54.4972 63.446 54.4972 63.1605 54.4972C63.0891 54.4972 63.0177 54.4972 62.9463 54.4972V41.6828C64.0885 40.6749 64.731 39.3071 64.731 38.0112C64.731 36.7154 64.0171 35.3476 62.9463 34.3397V12.8864C64.0885 9.21485 62.518 5.25534 58.9485 3.52756H58.7343C54.8079 1.5838 50.0963 3.1676 48.0974 7.12711L25.824 52.0495C23.8965 56.009 25.467 60.7604 29.322 62.7761L29.5362 62.9201C33.4626 64.8639 38.1743 63.3521 40.1732 59.4646L48.1688 43.4106H58.9485C60.1621 43.4106 61.3043 42.9786 62.2324 42.4027V54.7132C60.0907 55.1451 58.4488 57.0169 58.4488 59.3206C58.4488 61.9123 60.5191 64 63.0891 64C65.6591 64 67.7294 61.9123 67.7294 59.3206C67.7294 57.2328 66.373 55.4331 64.4455 54.8571L71.7985 40.243C72.1555 40.4589 72.5838 40.6029 73.0835 40.6029C74.5827 40.6029 75.7963 39.3791 75.7963 37.8673C75.9391 36.5714 75.2966 35.6355 74.3686 35.2036ZM59.0199 32.6839H53.0946L62.3038 14.4702V33.7638C61.3757 33.1159 60.2335 32.6839 59.0199 32.6839Z" fill="white"/>
<path d="M87.861 17.9976H87.7183C84.7199 18.0696 82.2927 20.5893 82.3641 23.6129L83.0066 58.2406C83.078 61.2642 85.5766 63.7119 88.5749 63.6399H88.7177C91.7161 63.5679 94.1433 61.0483 94.0719 58.0246L93.4294 23.397C93.358 20.3733 90.9308 17.9257 87.861 17.9976Z" fill="white"/>
<mask id="mask0_18_2420" style="mask-type:luminance" maskUnits="userSpaceOnUse" x="25" y="2" width="40" height="62">
<path d="M59.0199 32.756H53.0946L62.518 14.0383C64.4455 10.0788 62.8749 5.47141 59.0199 3.52765H58.8058C54.8794 1.58389 50.1677 3.1677 48.1688 7.1272L25.8954 52.0496C23.9679 56.0091 25.5384 60.7605 29.3934 62.7762L29.6076 62.9202C33.534 64.864 38.2457 63.3522 40.2446 59.4647L48.2402 43.4107H59.0199C62.2324 43.4107 64.8024 40.675 64.8024 38.1553C64.8024 35.4917 62.2324 32.756 59.0199 32.756Z" fill="white"/>
</mask>
<g mask="url(#mask0_18_2420)">
<path d="M48.4544 -13.0302C26.3238 -20.5172 2.40845 -8.56672 -5.0874 13.7505C-12.5119 36.0677 -0.661275 60.1847 21.4693 67.7437C43.6 75.2308 67.5153 63.2803 75.0112 40.9631C82.4356 18.6459 70.585 -5.5431 48.4544 -13.0302ZM27.3946 50.1779C14.9015 45.9305 8.19097 32.3242 12.4029 19.7257C16.6149 7.12732 30.1074 0.360166 42.6005 4.60763C55.0936 8.8551 61.8042 22.4614 57.5922 35.0598C53.3803 47.5863 39.8163 54.3534 27.3946 50.1779Z" fill="white"/>
<path opacity="0.4" d="M41.8152 2.73584C21.7549 -4.10331 -0.0187693 6.83932 -6.80073 27.0688C-13.5827 47.2983 -2.73156 69.2555 17.3288 76.0947C37.3891 82.9338 59.1628 71.9912 65.9448 51.7617C72.6553 31.5322 61.8756 9.57498 41.8152 2.73584ZM22.6116 60.1127C11.2607 56.2971 5.19264 43.8427 8.97626 32.4681C12.7599 21.0215 25.1102 14.9023 36.3897 18.7178C47.7405 22.5334 53.8086 34.9878 50.025 46.3624C46.2414 57.809 33.9624 64.0002 22.6116 60.1127Z" fill="white"/>
<path d="M46.1699 -39.1631C20.7554 -47.802 -6.80077 -33.9797 -15.3675 -8.35094C-23.9342 17.2779 -10.2274 45.0664 15.1871 53.7053C40.6016 62.3442 68.1578 48.522 76.7245 22.8932C85.2912 -2.73564 71.5845 -30.5242 46.1699 -39.1631ZM21.8976 33.4758C7.54843 28.6524 -0.161585 12.9584 4.69287 -1.51179C9.54733 -15.982 25.0388 -23.757 39.4594 -18.9336C53.8086 -14.0382 61.5186 1.58382 56.7355 16.126C51.8097 30.5962 36.2469 38.3712 21.8976 33.4758Z" fill="white"/>
</g>
<mask id="mask1_18_2420" style="mask-type:luminance" maskUnits="userSpaceOnUse" x="81" y="0" width="14" height="64">
<path d="M94.3575 57.4488C94.4289 60.4724 92.0016 62.9921 89.0033 63.0641H88.8605C85.8622 63.1361 83.3635 60.6884 83.2922 57.6648L82.6496 23.0371C82.5783 20.0135 85.0055 17.4938 88.0038 17.4218H88.1466C91.145 17.3498 93.6436 19.7975 93.715 22.8211L94.3575 57.4488ZM88.218 0C84.4344 0 81.436 3.09561 81.436 6.83914C81.436 10.6547 84.5058 13.6783 88.218 13.6783C91.9302 13.6783 95 10.5827 95 6.83914C95 3.09561 92.0016 0 88.218 0Z" fill="white"/>
</mask>
<g mask="url(#mask1_18_2420)">
<path d="M126.411 -20.0855C103.566 -27.8605 78.7945 -15.478 71.1559 7.55908C63.4458 30.5962 75.7248 55.5771 98.5693 63.2801C121.414 71.0551 146.186 58.6727 153.824 35.6356C161.534 12.5984 149.256 -12.3824 126.411 -20.0855ZM104.637 45.1384C91.7159 40.7469 84.7912 26.7087 89.1459 13.6783C93.5006 0.64794 107.422 -6.33519 120.343 -1.94374C133.264 2.44772 140.189 16.486 135.834 29.5163C131.48 42.5467 117.559 49.5298 104.637 45.1384Z" fill="white"/>
<path opacity="0.4" d="M119.558 -3.81567C98.7834 -10.8708 76.2959 0.431798 69.3711 21.3092C62.375 42.2586 73.5831 64.9357 94.2859 71.9189C115.06 78.974 137.548 67.6714 144.472 46.794C151.469 25.9166 140.26 3.23945 119.558 -3.81567ZM99.7829 55.4329C88.0751 51.4734 81.7928 38.659 85.7192 26.8525C89.6456 15.046 102.353 8.71076 114.061 12.6703C125.769 16.6298 132.051 29.4442 128.124 41.2507C124.127 53.0572 111.491 59.4644 99.7829 55.4329Z" fill="white"/>
<path d="M124.055 -47.0821C97.7841 -56.009 69.2999 -41.7548 60.519 -15.2621C51.6668 11.2306 65.8018 39.955 92.073 48.8099C118.344 57.7367 146.828 43.4825 155.609 16.9898C164.462 -9.50284 150.326 -38.1553 124.055 -47.0821ZM98.9977 27.9325C84.1488 22.8931 76.2246 6.69513 81.1505 -8.279C86.1477 -23.2531 102.21 -31.2441 117.059 -26.2767C131.908 -21.2374 139.832 -5.0394 134.906 9.93473C129.909 24.9089 113.847 32.9718 98.9977 27.9325Z" fill="white"/>
</g>
</g>
</svg>
