<svg width="100" height="100" viewBox="0 0 100 100" fill="none" xmlns="http://www.w3.org/2000/svg">
<rect width="100" height="100" rx="20" fill="url(#paint0_linear_23_28)"/>
<path d="M32.9375 34.3594C32.9375 33.1511 33.9167 32.1719 35.125 32.1719H64.875C66.0833 32.1719 67.0625 33.1511 67.0625 34.3594C67.0625 35.5676 66.0833 36.5469 64.875 36.5469H35.125C33.9167 36.5469 32.9375 35.5676 32.9375 34.3594ZM67.0625 43.1094C67.0625 41.9011 66.0833 40.9219 64.875 40.9219H35.125C33.9167 40.9219 32.9375 41.9011 32.9375 43.1094C32.9375 44.3176 33.9167 45.2969 35.125 45.2969H64.875C66.0833 45.2969 67.0625 44.3176 67.0625 43.1094ZM35.125 49.6719C33.9167 49.6719 32.9375 50.6511 32.9375 51.8594C32.9375 53.0676 33.9167 54.0469 35.125 54.0469H45.1875C46.3958 54.0469 47.375 53.0676 47.375 51.8594C47.375 50.6511 46.3958 49.6719 45.1875 49.6719H35.125ZM76.0795 66.7989C78.6367 69.356 78.6367 73.519 76.0778 76.0778C74.7986 77.357 73.1178 77.997 71.4375 77.997C69.7572 77.997 68.0764 77.357 66.7972 76.0778L54.8351 64.0936C54.5686 63.8267 54.3758 63.4954 54.2755 63.1318L51.8295 54.3028C51.725 53.9253 51.7237 53.5267 51.8259 53.1486C51.928 52.7705 52.1298 52.4267 52.4101 52.1532C52.6904 51.8797 53.039 51.6864 53.4196 51.5936C53.8001 51.5008 54.1985 51.5119 54.5733 51.6256L63.184 54.2412C63.5287 54.3458 63.8422 54.5339 64.0966 54.789L76.0795 66.7989ZM58.3378 61.4096L66.3785 69.4654L69.4727 66.3711L61.3869 58.2675L57.1072 56.9675L58.3378 61.4096ZM72.9842 69.8908L72.5629 69.4683L69.4692 72.562L69.8921 72.9858C70.7436 73.8373 72.1314 73.8373 72.9842 72.9842C73.8373 72.1314 73.8373 70.7436 72.9842 69.8908ZM69.25 22H30.75C25.9251 22 22 25.9251 22 30.75V69.25C22 74.0749 25.9251 78 30.75 78H57.5469C58.7551 78 59.7344 77.0208 59.7344 75.8125C59.7344 74.6042 58.7551 73.625 57.5469 73.625H30.75C28.3377 73.625 26.375 71.6623 26.375 69.25V30.75C26.375 28.3377 28.3377 26.375 30.75 26.375H69.25C71.6623 26.375 73.625 28.3377 73.625 30.75V57.6562C73.625 58.8645 74.6042 59.8438 75.8125 59.8438C77.0208 59.8438 78 58.8645 78 57.6562V30.75C78 25.9251 74.0749 22 69.25 22Z" fill="white"/>
<defs>
<linearGradient id="paint0_linear_23_28" x1="2.27895e-07" y1="49.1525" x2="100" y2="49.1525" gradientUnits="userSpaceOnUse">
<stop stop-color="#8A35F2"/>
<stop offset="1" stop-color="#BC4BDF"/>
</linearGradient>
</defs>
</svg>
