<svg width="100" height="100" viewBox="0 0 100 100" fill="none" xmlns="http://www.w3.org/2000/svg">
<rect width="100" height="100" rx="20" fill="url(#paint0_linear_23_50)"/>
<path d="M65.5719 51.651C64.4835 50.9191 62.9286 51.1046 62.0996 52.0659C60.7281 53.6557 59.1083 54.9976 57.5417 56.2952C55.1278 58.2951 52.8188 60.2092 51.9066 62.6876H40.5451C39.6329 60.2092 37.3239 58.2951 34.9105 56.2952C30.9997 53.0554 26.9562 49.7049 26.9562 43.1385C26.9562 38.6901 28.9496 34.4928 32.5692 31.321C36.2117 28.1284 41.0224 26.3751 46.1286 26.3751C46.1769 26.3751 46.2258 26.3751 46.2743 26.3756H46.2931C47.6531 26.3756 48.7603 25.4069 48.7705 24.2043C48.7806 22.996 47.6792 22.0095 46.3111 22.0006C39.8265 21.9591 33.6997 24.1658 29.0774 28.2161C24.5137 32.2155 22 37.5152 22 43.139C22 51.5993 27.5016 56.1572 31.5189 59.4855C34.2973 61.7875 35.9999 63.2845 35.9999 64.9845V71.4376C35.9999 75.0564 39.3348 78.0001 43.4334 78.0001H49.0086C53.1077 78.0001 56.4422 75.0564 56.4422 71.4376V65.1515C56.4471 65.0964 56.4518 65.041 56.4518 64.9845C56.4518 63.2845 58.1544 61.7875 60.9328 59.4855C62.567 58.1314 64.4202 56.5964 66.0414 54.7169C66.8709 53.7555 66.6605 52.3833 65.5719 51.651ZM49.0086 73.6251H43.4334C42.0673 73.6251 40.9556 72.6437 40.9556 71.4376V67.0626H51.4865V71.4376C51.4865 72.6437 50.3753 73.6251 49.0086 73.6251ZM43.3027 35.2542C39.3798 36.3326 36.7437 39.4894 36.7437 43.1095C36.7437 44.3178 35.6345 45.297 34.2659 45.297C32.8972 45.297 31.788 44.3178 31.788 43.1095C31.788 37.5634 35.8237 32.7279 41.8301 31.0769C43.1367 30.7181 44.5257 31.362 44.9323 32.5156C45.3389 33.6691 44.6094 34.8952 43.3027 35.2542ZM76.9706 36.2052L74.5861 34.6881C74.5911 34.5787 74.5934 34.4689 74.5934 34.3595C74.5934 34.2272 74.5885 34.0942 74.5818 33.9617C74.5793 33.9182 74.5765 33.875 74.5736 33.8314C74.5706 33.79 74.5691 33.7485 74.5658 33.7075L77.0258 32.0485C77.9951 31.3952 78.2816 30.2165 77.7014 29.2693L76.5864 27.4496C76.0032 26.4973 74.7188 26.0654 73.5659 26.4328L70.6365 27.3661C70.2683 27.1212 69.8802 26.9024 69.478 26.7054C69.4412 26.6879 69.4054 26.6696 69.3686 26.6521C69.2685 26.6049 69.1675 26.5592 69.0657 26.5149C69.0112 26.491 68.9565 26.4675 68.9016 26.4445C68.8551 26.4252 68.8091 26.4035 68.7622 26.3847L68.2351 23.8002C68.1323 23.2954 67.8317 22.8385 67.3859 22.5094C66.9402 22.1804 66.3776 22.0001 65.7966 22.0001H63.4426C62.207 22.0001 61.1602 22.8038 60.9889 23.8843L60.5921 26.3866C59.8622 26.6785 59.1753 27.0477 58.5464 27.4859L55.6712 26.6934C54.5131 26.3743 53.2636 26.8422 52.7186 27.7992L51.6268 29.7171C51.0698 30.695 51.4177 31.8862 52.4408 32.5044L54.7826 33.9198C54.7746 34.0663 54.7704 34.2129 54.7701 34.3595C54.7701 34.4933 54.7749 34.6269 54.7817 34.7607C54.7842 34.8051 54.7876 34.8495 54.7904 34.894C54.7938 34.9405 54.7957 34.9871 54.7996 35.0337L52.4258 36.694C51.453 37.3745 51.2005 38.5854 51.8348 39.527L52.9963 41.251C53.6033 42.1512 54.848 42.5456 55.9646 42.191L58.6867 41.327C59.2798 41.7253 59.9219 42.0633 60.6009 42.3345L61.1278 44.9189C61.3403 45.9605 62.3672 46.7189 63.5665 46.7189H65.7966C67.0142 46.7189 68.0508 45.938 68.2434 44.877L68.6997 42.3601C69.5288 42.036 70.303 41.6122 71.0004 41.1006L73.8171 41.8363C74.967 42.1366 76.1952 41.6667 76.7339 40.7212L77.7357 38.9622C78.2821 38.0018 77.9579 36.8332 76.9706 36.2052ZM59.734 34.1172C59.7345 34.107 59.736 34.0972 59.7365 34.0869C59.7418 34.0143 59.7485 33.9417 59.7583 33.8691C59.7694 33.7814 59.7836 33.694 59.8009 33.6071C59.9735 32.7372 60.4407 31.9339 61.1409 31.303C61.1578 31.2877 61.1747 31.2719 61.1922 31.2569C61.2415 31.2132 61.2919 31.171 61.3432 31.1296C61.3549 31.1201 61.3669 31.1108 61.379 31.1018C61.482 31.02 61.5888 30.9421 61.6994 30.8685C61.7086 30.862 61.7173 30.8561 61.7264 30.8501C61.7875 30.81 61.8495 30.7706 61.9128 30.7331V30.7326C62.0355 30.6599 62.1618 30.5919 62.2913 30.5289L62.3362 30.5066C62.3982 30.477 62.4611 30.4486 62.5245 30.4216C62.5454 30.4126 62.5667 30.4045 62.5875 30.3955C62.6881 30.3542 62.7902 30.3159 62.8937 30.2806C62.9364 30.2656 62.979 30.2511 63.022 30.2379C63.1396 30.201 63.2587 30.1681 63.3792 30.1392C64.3115 29.9144 65.298 29.9358 66.2167 30.2007C66.2558 30.2118 66.295 30.2234 66.3342 30.2357C66.4488 30.2717 66.5618 30.3115 66.673 30.355C66.7354 30.3788 66.7969 30.4041 66.8578 30.4301C66.9497 30.4701 67.0401 30.5127 67.1289 30.5579C67.167 30.5771 67.2057 30.5959 67.2436 30.6159C67.3191 30.6566 67.3935 30.6988 67.4666 30.7428C67.5011 30.7638 67.5344 30.7851 67.5678 30.8066C67.6191 30.8389 67.6694 30.8723 67.7192 30.9065C67.7493 30.9274 67.7798 30.9476 67.8093 30.9689C67.8824 31.0218 67.954 31.0761 68.0241 31.1329C68.045 31.1491 68.0644 31.1667 68.0847 31.1838C68.1413 31.2308 68.1965 31.279 68.2502 31.3291C68.8614 31.8883 69.2926 32.5813 69.4993 33.3366C69.5162 33.3995 69.5322 33.4627 69.5458 33.5259C69.5515 33.5504 69.5559 33.5751 69.5613 33.5999C69.5777 33.6846 69.5918 33.7696 69.6034 33.855C69.6116 33.916 69.6174 33.9771 69.6227 34.0387C69.6246 34.0617 69.6271 34.0848 69.6285 34.1083C69.6339 34.1921 69.6372 34.2757 69.6372 34.3598C69.6372 34.5108 69.6286 34.6625 69.6111 34.8129C69.6101 34.8192 69.6086 34.8257 69.6082 34.832C69.6001 34.8996 69.5901 34.967 69.5781 35.0341C69.5738 35.0593 69.568 35.0844 69.5633 35.1097C69.554 35.1567 69.5447 35.2033 69.5341 35.2499C69.357 36.0027 68.9597 36.6846 68.4051 37.2421C68.334 37.3141 68.2602 37.3841 68.1838 37.4519C68.1675 37.4669 68.1495 37.481 68.1325 37.4955C68.0731 37.5468 68.0116 37.5964 67.9497 37.6446C67.9162 37.6703 67.8839 37.6959 67.8499 37.7206C67.7812 37.7715 67.7106 37.8207 67.639 37.868C67.595 37.8971 67.5494 37.9249 67.5044 37.9527C67.4645 37.9769 67.4243 38.0008 67.3839 38.0245C67.3108 38.0663 67.2363 38.1069 67.1609 38.1453C67.1144 38.1693 67.0679 38.1932 67.0205 38.2153C66.9711 38.2389 66.9208 38.2616 66.8705 38.2838C66.8153 38.3073 66.7602 38.3304 66.7039 38.3521C66.6469 38.3751 66.5887 38.397 66.5302 38.4175C66.325 38.491 66.1143 38.5521 65.8996 38.6003C65.5017 38.6896 65.0926 38.7347 64.682 38.7345C64.2203 38.7345 63.7746 38.6776 63.3507 38.573C63.2822 38.5564 63.2143 38.5383 63.1469 38.5187C63.1057 38.5068 63.0646 38.4949 63.0235 38.482C62.8992 38.4423 62.7766 38.3986 62.6561 38.3507C62.6056 38.3309 62.5554 38.3104 62.5056 38.2894C62.4583 38.2687 62.4114 38.2473 62.3648 38.2253C62.3232 38.206 62.2826 38.1854 62.2418 38.1654C62.1733 38.131 62.1057 38.0951 62.0391 38.0578C61.9472 38.0075 61.8576 37.9538 61.7705 37.897C61.7294 37.8707 61.6888 37.8433 61.6481 37.8155C61.6108 37.7898 61.5726 37.7641 61.5358 37.7378C61.468 37.6883 61.4017 37.6372 61.3369 37.5848C61.3049 37.5592 61.2745 37.5323 61.2435 37.5062C61.1987 37.4679 61.1546 37.4288 61.1113 37.3892C60.4979 36.8272 60.0663 36.1304 59.8612 35.3712C59.8451 35.3123 59.8304 35.253 59.8172 35.1935C59.8114 35.1675 59.8066 35.1413 59.8013 35.1153C59.7901 35.0575 59.7801 34.9995 59.7713 34.9414C59.7674 34.9154 59.7631 34.8893 59.7596 34.8629C59.752 34.8022 59.7461 34.7414 59.7408 34.6804C59.7388 34.6573 59.7365 34.6343 59.7346 34.6107C59.7292 34.5271 59.7264 34.4433 59.7263 34.3595C59.7258 34.2788 59.7288 34.198 59.734 34.1172ZM38.7255 47.922C40.0942 47.922 41.2034 48.9012 41.2034 50.1095C41.2034 51.3178 40.0942 52.297 38.7255 52.297C37.3574 52.297 36.2477 51.3178 36.2477 50.1095C36.2477 48.9012 37.3574 47.922 38.7255 47.922Z" fill="white"/>
<defs>
<linearGradient id="paint0_linear_23_50" x1="2.27895e-07" y1="49.1525" x2="100" y2="49.1525" gradientUnits="userSpaceOnUse">
<stop stop-color="#8A35F2"/>
<stop offset="1" stop-color="#BC4BDF"/>
</linearGradient>
</defs>
</svg>
