<svg width="100" height="100" viewBox="0 0 100 100" fill="none" xmlns="http://www.w3.org/2000/svg">
<rect width="100" height="100" rx="20" fill="url(#paint0_linear_23_61)"/>
<path d="M69.25 22H30.75C25.9251 22 22 26.222 22 31.4118V64.3529C22 69.5427 25.9251 73.7647 30.75 73.7647H53.8281C55.0364 73.7647 56.0156 72.7114 56.0156 71.4118C56.0156 70.1121 55.0364 69.0588 53.8281 69.0588H52.5524L47.5229 62.0405L63.398 40.3208L73.625 53.4439V56.2353C73.625 57.5349 74.6042 58.5882 75.8125 58.5882C77.0208 58.5882 78 57.5349 78 56.2353V31.4118C78 26.222 74.0749 22 69.25 22ZM65.0202 35.0767C64.5969 34.5335 63.9671 34.2266 63.3096 34.2358C62.9842 34.2411 62.664 34.3246 62.3725 34.48C62.0809 34.6355 61.8252 34.859 61.6242 35.1342L44.7675 58.1958L39.045 50.2105C38.8406 49.9254 38.5782 49.6945 38.2778 49.5356C37.9775 49.3767 37.6472 49.2941 37.3125 49.2941H37.3112C36.9763 49.2943 36.646 49.3772 36.3456 49.5364C36.0452 49.6956 35.7829 49.9269 35.5787 50.2124L30.7645 56.9439C30.0279 57.9742 30.207 59.4513 31.1644 60.2435C32.1223 61.0364 33.4955 60.8433 34.2321 59.8134L37.3143 55.5036L47.0285 69.0588H30.75C28.3377 69.0588 26.375 66.9476 26.375 64.3529V31.4118C26.375 28.8171 28.3377 26.7059 30.75 26.7059H69.25C71.6623 26.7059 73.625 28.8171 73.625 31.4118V46.1186L65.0202 35.0767ZM37.3125 30.4706C33.6937 30.4706 30.75 33.6369 30.75 37.5294C30.75 41.4219 33.6937 44.5882 37.3125 44.5882C40.9313 44.5882 43.875 41.4219 43.875 37.5294C43.875 33.6369 40.9313 30.4706 37.3125 30.4706ZM37.3125 39.8824C36.1064 39.8824 35.125 38.8267 35.125 37.5294C35.125 36.2321 36.1064 35.1765 37.3125 35.1765C38.5186 35.1765 39.5 36.2321 39.5 37.5294C39.5 38.8267 38.5186 39.8824 37.3125 39.8824ZM68.3083 57.5644C68.0498 57.2852 67.7303 57.0802 67.3791 56.9682L58.7137 54.2141C58.3381 54.0947 57.9396 54.086 57.5598 54.1889C57.18 54.2917 56.8329 54.5023 56.5546 54.7987C56.2763 55.0951 56.0771 55.4665 55.9778 55.874C55.8785 56.2815 55.8827 56.7102 55.99 57.1153L58.4907 66.5533C58.5923 66.9372 58.7832 67.287 59.0452 67.5698L66.7972 75.9325C68.0366 77.2656 69.6845 78 71.4375 78C73.1905 78 74.8384 77.2656 76.0778 75.9325C77.3173 74.5993 78 72.8267 78 70.9412C78 69.0556 77.3173 67.2831 76.0805 65.9527L68.3083 57.5644ZM61.2875 59.9393L65.6034 61.3111L69.4115 65.4214L66.3657 68.8024L62.543 64.6784L61.2875 59.9393ZM72.9841 72.6048C72.1314 73.522 70.7436 73.5225 69.893 72.6075L69.4555 72.1351L72.5005 68.7551L72.9842 69.2775C73.3975 69.722 73.625 70.3125 73.625 70.9412C73.625 71.5699 73.3977 72.1605 72.9841 72.6048Z" fill="white"/>
<defs>
<linearGradient id="paint0_linear_23_61" x1="2.27895e-07" y1="49.1525" x2="100" y2="49.1525" gradientUnits="userSpaceOnUse">
<stop stop-color="#8A35F2"/>
<stop offset="1" stop-color="#BC4BDF"/>
</linearGradient>
</defs>
</svg>
