<svg width="19" height="19" viewBox="0 0 19 19" fill="none" xmlns="http://www.w3.org/2000/svg">
<path d="M6.5 0.5C6.75488 0.500283 7.00003 0.597879 7.18537 0.772848C7.3707 0.947818 7.48224 1.18695 7.49717 1.44139C7.51211 1.69584 7.42933 1.94638 7.26574 2.14183C7.10215 2.33729 6.8701 2.4629 6.617 2.493L6.5 2.5H2.5V16.5H16.5V7.5C16.5003 7.24512 16.5979 6.99997 16.7728 6.81463C16.9478 6.6293 17.187 6.51776 17.4414 6.50283C17.6958 6.48789 17.9464 6.57067 18.1418 6.73426C18.3373 6.89785 18.4629 7.1299 18.493 7.383L18.5 7.5V16.5C18.5002 17.0046 18.3096 17.4906 17.9665 17.8605C17.6234 18.2305 17.1532 18.4572 16.65 18.495L16.5 18.5H2.5C1.99542 18.5002 1.50943 18.3096 1.13945 17.9665C0.769471 17.6234 0.542843 17.1532 0.505 16.65L0.5 16.5V2.5C0.49984 1.99542 0.690406 1.50943 1.0335 1.13945C1.37659 0.769471 1.84684 0.542843 2.35 0.505L2.5 0.5H6.5ZM17.013 0.5C17.635 0.5 17.997 0.968 18.088 1.356C18.179 1.745 18.063 2.327 17.503 2.603L17.089 2.814L16.925 2.902L16.562 3.103L16.157 3.339L15.718 3.609C15.036 4.039 14.258 4.585 13.476 5.246C11.822 6.645 10.218 8.507 9.449 10.816C9.36519 11.0677 9.18483 11.2758 8.9476 11.3945C8.71037 11.5132 8.43569 11.5328 8.184 11.449C7.93231 11.3652 7.72422 11.1848 7.60551 10.9476C7.4868 10.7104 7.46719 10.4357 7.551 10.184C8.479 7.4 10.374 5.251 12.185 3.719C12.616 3.354 13.047 3.021 13.463 2.719L13.773 2.5H11.5C11.2451 2.49972 11 2.40212 10.8146 2.22715C10.6293 2.05218 10.5178 1.81305 10.5028 1.55861C10.4879 1.30416 10.5707 1.05362 10.7343 0.858167C10.8979 0.662714 11.1299 0.537104 11.383 0.507L11.5 0.5H17.013Z" fill="url(#paint0_linear_23_42)" stroke="url(#paint1_linear_23_42)"/>
<defs>
<linearGradient id="paint0_linear_23_42" x1="0.5" y1="9.34745" x2="18.5" y2="9.34745" gradientUnits="userSpaceOnUse">
<stop stop-color="#8A35F2"/>
<stop offset="1" stop-color="#BC4BDF"/>
</linearGradient>
<linearGradient id="paint1_linear_23_42" x1="0.5" y1="9.34745" x2="18.5" y2="9.34745" gradientUnits="userSpaceOnUse">
<stop stop-color="#8A35F2"/>
<stop offset="1" stop-color="#BC4BDF"/>
</linearGradient>
</defs>
</svg>
