<svg width="100" height="100" viewBox="0 0 100 100" fill="none" xmlns="http://www.w3.org/2000/svg">
<rect width="100" height="100" rx="15" fill="url(#paint0_linear_28_11)"/>
<path d="M78 31.4118V52.5882C78 52.614 77.997 52.6388 77.9966 52.6641C77.9949 52.7128 77.994 52.762 77.9897 52.8102C77.9863 52.8493 77.9799 52.8874 77.9748 52.926C77.9701 52.9628 77.9658 53 77.9594 53.0364C77.9518 53.0786 77.9419 53.1199 77.9321 53.1613C77.9244 53.1939 77.9175 53.2266 77.9086 53.2587C77.8974 53.2996 77.8842 53.3387 77.8709 53.3782C77.8603 53.4113 77.85 53.4439 77.8377 53.4766C77.824 53.5128 77.8082 53.5473 77.7932 53.5827C77.7779 53.6176 77.7633 53.6526 77.7467 53.6866C77.7308 53.7179 77.7142 53.7478 77.6975 53.778C77.6778 53.8144 77.6586 53.8502 77.6373 53.8851C77.6198 53.9136 77.6006 53.9404 77.5817 53.9679C77.5587 54.0024 77.536 54.0368 77.5112 54.0699C77.489 54.0988 77.465 54.1264 77.4416 54.1545C77.4181 54.1829 77.395 54.2124 77.3695 54.2399C77.3373 54.2752 77.3027 54.3079 77.2682 54.3411C77.251 54.3575 77.2357 54.3754 77.2178 54.3911C77.2156 54.3934 77.2134 54.3947 77.2113 54.3966C77.19 54.4159 77.1669 54.4334 77.1446 54.4518C77.1126 54.4779 77.081 54.5051 77.0477 54.5294C77.0255 54.5459 77.0015 54.5612 76.9784 54.5767C76.9439 54.6002 76.9092 54.6241 76.8738 54.6452C76.8503 54.6594 76.8255 54.6719 76.8011 54.6852C76.7648 54.7049 76.7285 54.7242 76.6913 54.7422C76.6662 54.7541 76.64 54.7647 76.6144 54.7758C76.5768 54.7918 76.5393 54.8069 76.5008 54.8204C76.4744 54.8299 76.4478 54.8388 76.421 54.8469C76.3811 54.8594 76.3419 54.87 76.3017 54.88C76.2752 54.8865 76.2492 54.8929 76.2222 54.8985C76.1774 54.9076 76.1325 54.9145 76.0877 54.9205C76.065 54.9238 76.0428 54.9279 76.0198 54.9296C75.9514 54.9371 75.8826 54.9412 75.8138 54.9412H75.8112C75.7416 54.9412 75.672 54.9371 75.6027 54.9296L75.5835 54.9284C75.5206 54.9209 75.458 54.9106 75.3959 54.8975C75.3835 54.8947 75.3716 54.8928 75.3591 54.8901C75.3009 54.8765 75.2432 54.8604 75.1861 54.8419C75.1724 54.8378 75.1588 54.8336 75.1451 54.8289C75.0885 54.8094 75.0327 54.7873 74.9778 54.7628L74.9443 54.7477C74.8871 54.7214 74.8311 54.6924 74.7764 54.6608C74.7705 54.6572 74.7649 54.654 74.7593 54.6502C74.6424 54.5814 74.5317 54.5009 74.4287 54.4099L74.4171 54.4002C74.3602 54.3492 74.3057 54.295 74.2539 54.238C74.2129 54.1937 74.1735 54.1476 74.136 54.0998L74.1253 54.0859L74.1241 54.0846L63.3955 40.3175L54.4519 52.5161C53.7038 53.5364 52.3285 53.7109 51.3795 52.9062C50.431 52.1015 50.2687 50.6222 51.0169 49.6015L61.6262 35.1309C62.0338 34.5749 62.6529 34.2462 63.3108 34.2356C63.9687 34.2251 64.5973 34.534 65.0204 35.0768L73.625 46.1185V31.4118C73.625 28.8171 71.6623 26.7059 69.25 26.7059H30.75C28.3377 26.7059 26.375 28.8171 26.375 31.4118V62.29L35.6206 50.1553C35.8258 49.8861 36.0841 49.6693 36.3766 49.5203C36.6692 49.3714 36.9888 49.2942 37.3125 49.2941H37.3232C37.6487 49.2958 37.9697 49.3756 38.2628 49.5277C38.556 49.6798 38.8139 49.9003 39.0177 50.1733L43.9395 56.7615C44.6962 57.7744 44.5462 59.2555 43.6045 60.0694C42.6625 60.8833 41.2859 60.722 40.5292 59.7091L37.2959 55.3809L27.8084 67.8332C28.586 68.5942 29.6182 69.0588 30.75 69.0588H41.25C42.4583 69.0588 43.4375 70.1121 43.4375 71.4118C43.4375 72.7114 42.4583 73.7647 41.25 73.7647H30.75C25.9251 73.7647 22 69.5427 22 64.3529V31.4118C22 26.222 25.9251 22 30.75 22H69.25C74.0749 22 78 26.222 78 31.4118ZM37.3125 30.4706C40.9313 30.4706 43.875 33.6369 43.875 37.5294C43.875 41.4219 40.9313 44.5882 37.3125 44.5882C33.6937 44.5882 30.75 41.4219 30.75 37.5294C30.75 33.6369 33.6937 30.4706 37.3125 30.4706ZM37.3125 35.1765C36.1064 35.1765 35.125 36.2321 35.125 37.5294C35.125 38.8267 36.1064 39.8824 37.3125 39.8824C38.5186 39.8824 39.5 38.8267 39.5 37.5294C39.5 36.2321 38.5186 35.1765 37.3125 35.1765ZM78 64.1765V70.4118C78 74.596 74.8353 78 70.9453 78H66.9531C65.7449 78 64.7656 76.9467 64.7656 75.6471V58.9412C64.7656 57.6415 65.7449 56.5882 66.9531 56.5882H70.9453C74.8353 56.5882 78 59.9922 78 64.1765ZM73.625 64.1765C73.625 62.5868 72.4227 61.2941 70.9453 61.2941H69.1406V73.2941H70.9453C72.4227 73.2941 73.625 72.0014 73.625 70.4118V64.1765ZM58.75 56.5882C57.5417 56.5882 56.5625 57.6415 56.5625 58.9412V64.9412H52.1875V58.9412C52.1875 57.6415 51.2083 56.5882 50 56.5882C48.7917 56.5882 47.8125 57.6415 47.8125 58.9412V75.6471C47.8125 76.9467 48.7917 78 50 78C51.2083 78 52.1875 76.9467 52.1875 75.6471V69.6471H56.5625V75.6471C56.5625 76.9467 57.5417 78 58.75 78C59.9583 78 60.9375 76.9467 60.9375 75.6471V58.9412C60.9375 57.6415 59.9583 56.5882 58.75 56.5882Z" fill="white"/>
<defs>
<linearGradient id="paint0_linear_28_11" x1="2.27895e-07" y1="49.1525" x2="100" y2="49.1525" gradientUnits="userSpaceOnUse">
<stop stop-color="#8A35F2"/>
<stop offset="1" stop-color="#BC4BDF"/>
</linearGradient>
</defs>
</svg>
