<svg width="100" height="100" viewBox="0 0 100 100" fill="none" xmlns="http://www.w3.org/2000/svg">
<rect width="100" height="100" rx="15" fill="url(#paint0_linear_28_5)"/>
<path d="M71.4375 22H28.5625C24.9437 22 22 25.0636 22 28.8296V66.6203C22 71.6416 25.9251 75.7265 30.75 75.7265H55.4688C56.677 75.7265 57.6562 74.7074 57.6562 73.45C57.6562 72.1925 56.677 71.1734 55.4688 71.1734H30.75C28.3377 71.1734 26.375 69.1308 26.375 66.6203V35.7731H73.625V56.7174C73.625 57.9748 74.6042 58.9939 75.8125 58.9939C77.0208 58.9939 78 57.9748 78 56.7174V28.8296C78 25.0636 75.0563 22 71.4375 22ZM62.5781 26.5531C63.7842 26.5531 64.7656 27.5745 64.7656 28.8296C64.7656 30.0848 63.7842 31.1062 62.5781 31.1062C61.372 31.1062 60.3906 30.0848 60.3906 28.8296C60.3906 27.5745 61.372 26.5531 62.5781 26.5531ZM73.5156 28.8296C73.5156 30.0848 72.5342 31.1062 71.3281 31.1062C70.122 31.1062 69.1406 30.0848 69.1406 28.8296C69.1406 27.5745 70.122 26.5531 71.3281 26.5531C72.5342 26.5531 73.5156 27.5745 73.5156 28.8296ZM26.375 28.8296C26.375 27.5745 27.3564 26.5531 28.5625 26.5531H56.392C56.1425 27.284 56.0152 28.054 56.0156 28.8296C56.015 29.646 56.1558 30.4557 56.4312 31.22H26.375V28.8296ZM64.0966 53.8472C63.842 53.5817 63.5284 53.3857 63.1835 53.2767L54.5733 50.5551C54.1985 50.4365 53.8 50.4249 53.4194 50.5214C53.0388 50.6179 52.69 50.819 52.4096 51.1037C52.1293 51.3885 51.9276 51.7463 51.8255 52.1399C51.7235 52.5335 51.7249 52.9484 51.8295 53.3412L54.275 62.5297C54.3756 62.9079 54.5686 63.2526 54.8351 63.5301L66.7972 76.0027C68.0764 77.3339 69.7572 78 71.4375 78C73.1178 78 74.7983 77.3339 76.0778 76.0027C78.6366 73.3397 78.6366 69.0072 76.0795 66.346L64.0966 53.8472ZM57.1072 56.1144L61.387 57.4675L69.4726 65.9009L66.3785 69.121L58.3377 60.7373L57.1072 56.1144ZM72.9841 72.7831C72.1314 73.6709 70.7436 73.6709 69.8921 72.7848L69.4692 72.3437L72.5629 69.1241L72.9846 69.5638C73.8373 70.4513 73.8372 71.8955 72.9841 72.7831Z" fill="white"/>
<defs>
<linearGradient id="paint0_linear_28_5" x1="2.27895e-07" y1="49.1525" x2="100" y2="49.1525" gradientUnits="userSpaceOnUse">
<stop stop-color="#8A35F2"/>
<stop offset="1" stop-color="#BC4BDF"/>
</linearGradient>
</defs>
</svg>
