<svg width="198" height="38" viewBox="0 0 198 38" fill="none" xmlns="http://www.w3.org/2000/svg">
<path d="M11.256 -0.000177383H19.194L30.45 29.8198H22.47L21 25.5778H9.49203L8.02203 29.8198H3.1258e-05L11.256 -0.000177383ZM11.844 18.8158H18.606L15.204 9.07182L11.844 18.8158ZM32.4828 29.8198V-0.000177383H39.8748V29.8198H32.4828Z" fill="url(#paint0_linear_2_4167)"/>
<path d="M53.133 -0.000177383H61.071L72.327 29.8198H64.347L62.877 25.5778H51.369L49.899 29.8198H41.877L53.133 -0.000177383ZM53.721 18.8158H60.483L57.081 9.07182L53.721 18.8158ZM74.3597 29.8198V7.97982H81.6257V13.9438C82.3397 10.3318 84.4397 7.55982 88.3037 7.55982C88.8077 7.55982 89.3537 7.60182 89.9417 7.76982V14.6998C89.3957 14.5738 88.9337 14.5318 88.3457 14.5318C83.9777 14.5318 81.6257 17.3878 81.6257 21.3358V29.8198H74.3597ZM102.357 30.0718C97.9887 30.0718 94.8387 27.9718 94.8387 22.5118V13.6918H91.5207V7.97982H94.8387V2.39382H102.105V7.97982H106.725V13.6918H102.105V21.4198C102.105 22.4278 102.693 23.6878 104.751 23.6878C105.255 23.6878 106.053 23.6038 106.809 23.3518V28.8538C105.969 29.7778 103.995 30.0718 102.357 30.0718ZM109.592 29.8198V7.97982H116.858V29.8198H109.592ZM109.592 6.25782V-0.000177383H116.858V6.25782H109.592ZM127.851 30.2398C123.357 30.2398 119.955 28.2238 119.283 23.9398L124.995 22.3858C125.289 23.1418 125.793 24.6118 127.725 24.6118C128.733 24.6118 129.573 24.1498 129.573 23.2258C129.573 22.7638 129.321 22.1758 128.187 21.8398L124.995 20.6638C121.383 19.4038 119.829 17.0098 119.829 14.1958C119.829 9.99582 123.651 7.55982 128.061 7.55982C132.345 7.55982 135.453 9.99582 136.167 13.6498L130.497 15.0358C130.035 13.3558 128.985 13.1038 128.355 13.1038C127.221 13.1038 126.843 13.8598 126.843 14.3218C126.843 14.8258 127.137 15.4138 128.397 15.7498L131.379 16.8418C133.479 17.5138 136.713 19.1518 136.713 23.2258C136.713 27.6358 132.933 30.2398 127.851 30.2398ZM148.745 30.0718C144.377 30.0718 141.227 27.9718 141.227 22.5118V13.6918H137.909V7.97982H141.227V2.39382H148.493V7.97982H153.113V13.6918H148.493V21.4198C148.493 22.4278 149.081 23.6878 151.139 23.6878C151.643 23.6878 152.441 23.6038 153.197 23.3518V28.8538C152.357 29.7778 150.383 30.0718 148.745 30.0718ZM155.981 29.8198V7.97982H163.247V13.9438C163.961 10.3318 166.061 7.55982 169.925 7.55982C170.429 7.55982 170.975 7.60182 171.563 7.76982V14.6998C171.017 14.5738 170.555 14.5318 169.967 14.5318C165.599 14.5318 163.247 17.3878 163.247 21.3358V29.8198H155.981ZM178.182 37.7998L181.752 29.6098L172.722 7.97982H180.114L185.238 21.3358L190.32 7.97982H197.712L185.28 37.7998H178.182Z" fill="#170033"/>
<defs>
<linearGradient id="paint0_linear_2_4167" x1="-0.167967" y1="13.8198" x2="44.3997" y2="13.8198" gradientUnits="userSpaceOnUse">
<stop stop-color="#8A35F2"/>
<stop offset="1" stop-color="#BC4BDF"/>
</linearGradient>
</defs>
</svg>
